<?xml version="1.0" encoding="utf-8" standalone="no"?>
<!DOCTYPE svg PUBLIC "-//W3C//DTD SVG 1.1//EN"
  "http://www.w3.org/Graphics/SVG/1.1/DTD/svg11.dtd">
<svg xmlns:xlink="http://www.w3.org/1999/xlink" width="520.840332pt" height="434.796562pt" viewBox="0 0 520.840332 434.796562" xmlns="http://www.w3.org/2000/svg" version="1.1">
 <metadata>
  <rdf:RDF xmlns:dc="http://purl.org/dc/elements/1.1/" xmlns:cc="http://creativecommons.org/ns#" xmlns:rdf="http://www.w3.org/1999/02/22-rdf-syntax-ns#">
   <cc:Work>
    <dc:type rdf:resource="http://purl.org/dc/dcmitype/StillImage"/>
    <dc:date>2023-01-01T09:15:50.230145</dc:date>
    <dc:format>image/svg+xml</dc:format>
    <dc:creator>
     <cc:Agent>
      <dc:title>Matplotlib v3.6.2, https://matplotlib.org/</dc:title>
     </cc:Agent>
    </dc:creator>
   </cc:Work>
  </rdf:RDF>
 </metadata>
 <defs>
  <style type="text/css">*{stroke-linejoin: round; stroke-linecap: butt}</style>
 </defs>
 <g id="figure_1">
  <g id="patch_1">
   <path d="M 0 434.796562 
L 520.840332 434.796562 
L 520.840332 0 
L 0 0 
L 0 434.796562 
z
" style="fill: none"/>
  </g>
  <g id="axes_1">
   <g id="patch_2">
    <path d="M 67.240332 266.938125 
L 513.640332 266.938125 
L 513.640332 22.318125 
L 67.240332 22.318125 
z
" style="fill: #ffffff"/>
   </g>
   <g id="PolyCollection_1">
    <defs>
     <path id="md61761cf2a" d="M 87.531241 -401.359347 
L 87.531241 -401.359347 
L 89.354688 -401.359347 
L 89.354688 -388.636377 
L 91.988555 -388.636377 
L 91.988555 -388.636377 
L 94.014607 -388.636377 
L 94.014607 -388.636377 
L 94.217212 -388.636377 
L 94.217212 -386.902316 
L 95.027633 -386.902316 
L 95.027633 -384.520059 
L 95.230238 -384.520059 
L 95.230238 -384.520059 
L 100.497973 -384.520059 
L 100.497973 -382.027573 
L 101.308393 -382.027573 
L 101.308393 -382.027573 
L 103.739656 -382.027573 
L 103.739656 -379.519607 
L 104.144866 -379.519607 
L 104.144866 -377.053807 
L 109.412601 -377.053807 
L 109.412601 -374.628108 
L 114.47773 -374.628108 
L 114.47773 -374.628108 
L 114.882941 -374.628108 
L 114.882941 -372.205202 
L 122.176727 -372.205202 
L 122.176727 -372.205202 
L 126.634041 -372.205202 
L 126.634041 -369.784627 
L 131.496566 -369.784627 
L 131.496566 -367.397992 
L 131.901776 -367.397992 
L 131.901776 -365.008883 
L 145.476323 -365.008883 
L 145.476323 -365.008883 
L 146.691954 -365.008883 
L 146.691954 -365.008883 
L 147.907585 -365.008883 
L 147.907585 -365.008883 
L 148.110191 -365.008883 
L 148.110191 -365.008883 
L 149.325822 -365.008883 
L 149.325822 -365.008883 
L 150.541453 -365.008883 
L 150.541453 -365.008883 
L 150.744058 -365.008883 
L 150.744058 -362.440378 
L 157.024819 -362.440378 
L 157.024819 -362.440378 
L 157.835239 -362.440378 
L 157.835239 -362.440378 
L 158.64566 -362.440378 
L 158.64566 -362.440378 
L 161.279528 -362.440378 
L 161.279528 -362.440378 
L 162.292553 -362.440378 
L 162.292553 -362.440378 
L 163.102974 -362.440378 
L 163.102974 -362.440378 
L 163.913395 -362.440378 
L 163.913395 -362.440378 
L 164.116 -362.440378 
L 164.116 -362.440378 
L 164.318605 -362.440378 
L 164.318605 -362.440378 
L 164.723816 -362.440378 
L 164.723816 -362.440378 
L 165.534236 -362.440378 
L 165.534236 -362.440378 
L 166.749867 -362.440378 
L 166.749867 -362.440378 
L 166.952473 -362.440378 
L 166.952473 -362.440378 
L 167.155078 -362.440378 
L 167.155078 -362.440378 
L 167.560288 -362.440378 
L 167.560288 -359.111124 
L 169.383735 -359.111124 
L 169.383735 -359.111124 
L 170.599366 -359.111124 
L 170.599366 -359.111124 
L 173.435839 -359.111124 
L 173.435839 -359.111124 
L 174.246259 -359.111124 
L 174.246259 -359.111124 
L 175.05668 -359.111124 
L 175.05668 -359.111124 
L 175.259285 -359.111124 
L 175.259285 -355.555679 
L 175.46189 -355.555679 
L 175.46189 -355.555679 
L 177.487942 -355.555679 
L 177.487942 -355.555679 
L 178.095758 -355.555679 
L 178.095758 -355.555679 
L 178.906178 -355.555679 
L 178.906178 -355.555679 
L 179.108784 -355.555679 
L 179.108784 -355.555679 
L 179.311389 -355.555679 
L 179.311389 -355.555679 
L 179.513994 -355.555679 
L 179.513994 -355.555679 
L 179.919204 -355.555679 
L 179.919204 -351.566111 
L 181.337441 -351.566111 
L 181.337441 -351.566111 
L 184.781729 -351.566111 
L 184.781729 -351.566111 
L 189.644253 -351.566111 
L 189.644253 -351.566111 
L 209.296956 -351.566111 
L 209.296956 -351.566111 
L 212.133428 -351.566111 
L 212.133428 -351.566111 
L 214.767296 -351.566111 
L 214.767296 -351.566111 
L 214.969901 -351.566111 
L 214.969901 -351.566111 
L 215.780322 -351.566111 
L 215.780322 -351.566111 
L 216.793348 -351.566111 
L 216.793348 -351.566111 
L 217.806374 -351.566111 
L 217.806374 -351.566111 
L 218.8194 -351.566111 
L 218.8194 -351.566111 
L 220.440241 -351.566111 
L 220.440241 -351.566111 
L 220.642846 -351.566111 
L 220.642846 -351.566111 
L 221.250662 -351.566111 
L 221.250662 -351.566111 
L 221.655872 -351.566111 
L 221.655872 -351.566111 
L 222.668898 -351.566111 
L 222.668898 -351.566111 
L 224.69495 -351.566111 
L 224.69495 -351.566111 
L 225.707976 -351.566111 
L 225.707976 -351.566111 
L 225.910581 -351.566111 
L 225.910581 -351.566111 
L 228.341843 -351.566111 
L 228.341843 -351.566111 
L 228.544448 -351.566111 
L 228.544448 -351.566111 
L 229.962685 -351.566111 
L 229.962685 -351.566111 
L 230.5705 -351.566111 
L 230.5705 -351.566111 
L 230.773105 -351.566111 
L 230.773105 -351.566111 
L 231.380921 -351.566111 
L 231.380921 -351.566111 
L 231.786131 -351.566111 
L 231.786131 -351.566111 
L 231.988736 -351.566111 
L 231.988736 -351.566111 
L 232.799157 -351.566111 
L 232.799157 -351.566111 
L 235.027814 -351.566111 
L 235.027814 -351.566111 
L 235.63563 -351.566111 
L 235.63563 -351.566111 
L 235.838235 -351.566111 
L 235.838235 -351.566111 
L 236.648656 -351.566111 
L 236.648656 -351.566111 
L 236.851261 -351.566111 
L 236.851261 -351.566111 
L 238.674707 -351.566111 
L 238.674707 -351.566111 
L 239.687733 -351.566111 
L 239.687733 -351.566111 
L 241.713785 -351.566111 
L 241.713785 -351.566111 
L 243.942442 -351.566111 
L 243.942442 -351.566111 
L 245.765889 -351.566111 
L 245.765889 -351.566111 
L 245.968494 -351.566111 
L 245.968494 -351.566111 
L 246.171099 -351.566111 
L 246.171099 -351.566111 
L 247.589336 -351.566111 
L 247.589336 -351.566111 
L 249.412782 -351.566111 
L 249.412782 -351.566111 
L 259.745647 -351.566111 
L 259.745647 -351.566111 
L 276.561877 -351.566111 
L 276.561877 -351.566111 
L 285.2739 -351.566111 
L 285.2739 -325.893451 
L 286.692136 -325.893451 
L 286.692136 -325.893451 
L 287.299951 -325.893451 
L 287.299951 -305.386829 
L 294.796343 -305.386829 
L 294.796343 -305.386829 
L 295.201554 -305.386829 
L 295.201554 -305.386829 
L 297.632816 -305.386829 
L 297.632816 -305.386829 
L 300.671894 -305.386829 
L 300.671894 -305.386829 
L 300.874499 -305.386829 
L 300.874499 -305.386829 
L 302.292735 -305.386829 
L 302.292735 -305.386829 
L 302.697945 -305.386829 
L 302.697945 -305.386829 
L 304.116182 -305.386829 
L 304.116182 -305.386829 
L 304.926602 -305.386829 
L 304.926602 -305.386829 
L 306.344839 -305.386829 
L 306.344839 -305.386829 
L 306.547444 -305.386829 
L 306.547444 -305.386829 
L 310.802153 -305.386829 
L 310.802153 -305.386829 
L 322.148043 -305.386829 
L 322.148043 -305.386829 
L 373.407154 -305.386829 
L 373.407154 -178.977528 
L 373.407154 -178.977528 
L 373.407154 -178.977528 
L 373.407154 -372.387185 
L 322.148043 -372.387185 
L 322.148043 -372.387185 
L 310.802153 -372.387185 
L 310.802153 -372.387185 
L 306.547444 -372.387185 
L 306.547444 -372.387185 
L 306.344839 -372.387185 
L 306.344839 -372.387185 
L 304.926602 -372.387185 
L 304.926602 -372.387185 
L 304.116182 -372.387185 
L 304.116182 -372.387185 
L 302.697945 -372.387185 
L 302.697945 -372.387185 
L 302.292735 -372.387185 
L 302.292735 -372.387185 
L 300.874499 -372.387185 
L 300.874499 -372.387185 
L 300.671894 -372.387185 
L 300.671894 -372.387185 
L 297.632816 -372.387185 
L 297.632816 -372.387185 
L 295.201554 -372.387185 
L 295.201554 -372.387185 
L 294.796343 -372.387185 
L 294.796343 -372.387185 
L 287.299951 -372.387185 
L 287.299951 -378.549435 
L 286.692136 -378.549435 
L 286.692136 -378.549435 
L 285.2739 -378.549435 
L 285.2739 -382.185575 
L 276.561877 -382.185575 
L 276.561877 -382.185575 
L 259.745647 -382.185575 
L 259.745647 -382.185575 
L 249.412782 -382.185575 
L 249.412782 -382.185575 
L 247.589336 -382.185575 
L 247.589336 -382.185575 
L 246.171099 -382.185575 
L 246.171099 -382.185575 
L 245.968494 -382.185575 
L 245.968494 -382.185575 
L 245.765889 -382.185575 
L 245.765889 -382.185575 
L 243.942442 -382.185575 
L 243.942442 -382.185575 
L 241.713785 -382.185575 
L 241.713785 -382.185575 
L 239.687733 -382.185575 
L 239.687733 -382.185575 
L 238.674707 -382.185575 
L 238.674707 -382.185575 
L 236.851261 -382.185575 
L 236.851261 -382.185575 
L 236.648656 -382.185575 
L 236.648656 -382.185575 
L 235.838235 -382.185575 
L 235.838235 -382.185575 
L 235.63563 -382.185575 
L 235.63563 -382.185575 
L 235.027814 -382.185575 
L 235.027814 -382.185575 
L 232.799157 -382.185575 
L 232.799157 -382.185575 
L 231.988736 -382.185575 
L 231.988736 -382.185575 
L 231.786131 -382.185575 
L 231.786131 -382.185575 
L 231.380921 -382.185575 
L 231.380921 -382.185575 
L 230.773105 -382.185575 
L 230.773105 -382.185575 
L 230.5705 -382.185575 
L 230.5705 -382.185575 
L 229.962685 -382.185575 
L 229.962685 -382.185575 
L 228.544448 -382.185575 
L 228.544448 -382.185575 
L 228.341843 -382.185575 
L 228.341843 -382.185575 
L 225.910581 -382.185575 
L 225.910581 -382.185575 
L 225.707976 -382.185575 
L 225.707976 -382.185575 
L 224.69495 -382.185575 
L 224.69495 -382.185575 
L 222.668898 -382.185575 
L 222.668898 -382.185575 
L 221.655872 -382.185575 
L 221.655872 -382.185575 
L 221.250662 -382.185575 
L 221.250662 -382.185575 
L 220.642846 -382.185575 
L 220.642846 -382.185575 
L 220.440241 -382.185575 
L 220.440241 -382.185575 
L 218.8194 -382.185575 
L 218.8194 -382.185575 
L 217.806374 -382.185575 
L 217.806374 -382.185575 
L 216.793348 -382.185575 
L 216.793348 -382.185575 
L 215.780322 -382.185575 
L 215.780322 -382.185575 
L 214.969901 -382.185575 
L 214.969901 -382.185575 
L 214.767296 -382.185575 
L 214.767296 -382.185575 
L 212.133428 -382.185575 
L 212.133428 -382.185575 
L 209.296956 -382.185575 
L 209.296956 -382.185575 
L 189.644253 -382.185575 
L 189.644253 -382.185575 
L 184.781729 -382.185575 
L 184.781729 -382.185575 
L 181.337441 -382.185575 
L 181.337441 -382.185575 
L 179.919204 -382.185575 
L 179.919204 -384.29961 
L 179.513994 -384.29961 
L 179.513994 -384.29961 
L 179.311389 -384.29961 
L 179.311389 -384.29961 
L 179.108784 -384.29961 
L 179.108784 -384.29961 
L 178.906178 -384.29961 
L 178.906178 -384.29961 
L 178.095758 -384.29961 
L 178.095758 -384.29961 
L 177.487942 -384.29961 
L 177.487942 -384.29961 
L 175.46189 -384.29961 
L 175.46189 -384.29961 
L 175.259285 -384.29961 
L 175.259285 -386.219955 
L 175.05668 -386.219955 
L 175.05668 -386.219955 
L 174.246259 -386.219955 
L 174.246259 -386.219955 
L 173.435839 -386.219955 
L 173.435839 -386.219955 
L 170.599366 -386.219955 
L 170.599366 -386.219955 
L 169.383735 -386.219955 
L 169.383735 -386.219955 
L 167.560288 -386.219955 
L 167.560288 -388.007045 
L 167.155078 -388.007045 
L 167.155078 -388.007045 
L 166.952473 -388.007045 
L 166.952473 -388.007045 
L 166.749867 -388.007045 
L 166.749867 -388.007045 
L 165.534236 -388.007045 
L 165.534236 -388.007045 
L 164.723816 -388.007045 
L 164.723816 -388.007045 
L 164.318605 -388.007045 
L 164.318605 -388.007045 
L 164.116 -388.007045 
L 164.116 -388.007045 
L 163.913395 -388.007045 
L 163.913395 -388.007045 
L 163.102974 -388.007045 
L 163.102974 -388.007045 
L 162.292553 -388.007045 
L 162.292553 -388.007045 
L 161.279528 -388.007045 
L 161.279528 -388.007045 
L 158.64566 -388.007045 
L 158.64566 -388.007045 
L 157.835239 -388.007045 
L 157.835239 -388.007045 
L 157.024819 -388.007045 
L 157.024819 -388.007045 
L 150.744058 -388.007045 
L 150.744058 -389.527809 
L 150.541453 -389.527809 
L 150.541453 -389.527809 
L 149.325822 -389.527809 
L 149.325822 -389.527809 
L 148.110191 -389.527809 
L 148.110191 -389.527809 
L 147.907585 -389.527809 
L 147.907585 -389.527809 
L 146.691954 -389.527809 
L 146.691954 -389.527809 
L 145.476323 -389.527809 
L 145.476323 -389.527809 
L 131.901776 -389.527809 
L 131.901776 -390.952841 
L 131.496566 -390.952841 
L 131.496566 -392.336601 
L 126.634041 -392.336601 
L 126.634041 -393.684987 
L 122.176727 -393.684987 
L 122.176727 -393.684987 
L 114.882941 -393.684987 
L 114.882941 -394.983836 
L 114.47773 -394.983836 
L 114.47773 -394.983836 
L 109.412601 -394.983836 
L 109.412601 -396.227301 
L 104.144866 -396.227301 
L 104.144866 -397.414104 
L 103.739656 -397.414104 
L 103.739656 -398.529619 
L 101.308393 -398.529619 
L 101.308393 -398.529619 
L 100.497973 -398.529619 
L 100.497973 -399.545722 
L 95.230238 -399.545722 
L 95.230238 -399.545722 
L 95.027633 -399.545722 
L 95.027633 -400.426519 
L 94.217212 -400.426519 
L 94.217212 -401.099536 
L 94.014607 -401.099536 
L 94.014607 -401.099536 
L 91.988555 -401.099536 
L 91.988555 -401.099536 
L 89.354688 -401.099536 
L 89.354688 -401.359347 
L 87.531241 -401.359347 
z
" style="stroke: #ff0000; stroke-opacity: 0.25"/>
    </defs>
    <g clip-path="url(#p8a25f96248)">
     <use xlink:href="#md61761cf2a" x="0" y="434.796562" style="fill: #ff0000; fill-opacity: 0.25; stroke: #ff0000; stroke-opacity: 0.25"/>
    </g>
   </g>
   <g id="PolyCollection_2">
    <defs>
     <path id="md8246af9ab" d="M 87.733846 -401.359347 
L 87.733846 -401.359347 
L 87.936451 -401.359347 
L 87.936451 -401.359347 
L 88.139056 -401.359347 
L 88.139056 -401.359347 
L 89.354688 -401.359347 
L 89.354688 -401.359347 
L 90.570319 -401.359347 
L 90.570319 -401.359347 
L 90.772924 -401.359347 
L 90.772924 -401.359347 
L 90.975529 -401.359347 
L 90.975529 -401.359347 
L 91.178134 -401.359347 
L 91.178134 -401.359347 
L 92.19116 -401.359347 
L 92.19116 -401.359347 
L 92.393765 -401.359347 
L 92.393765 -401.359347 
L 95.230238 -401.359347 
L 95.230238 -401.359347 
L 95.432843 -401.359347 
L 95.432843 -396.823638 
L 97.053684 -396.823638 
L 97.053684 -396.823638 
L 98.269316 -396.823638 
L 98.269316 -396.823638 
L 98.877131 -396.823638 
L 98.877131 -396.234426 
L 99.079736 -396.234426 
L 99.079736 -396.234426 
L 99.282341 -396.234426 
L 99.282341 -396.234426 
L 101.510998 -396.234426 
L 101.510998 -396.234426 
L 106.576128 -396.234426 
L 106.576128 -396.234426 
L 107.791759 -396.234426 
L 107.791759 -395.371498 
L 110.628232 -395.371498 
L 110.628232 -395.371498 
L 112.046468 -395.371498 
L 112.046468 -394.480376 
L 113.059494 -394.480376 
L 113.059494 -394.480376 
L 116.503782 -394.480376 
L 116.503782 -393.590445 
L 117.922018 -393.590445 
L 117.922018 -393.590445 
L 120.555886 -393.590445 
L 120.555886 -393.590445 
L 122.581938 -393.590445 
L 122.581938 -393.590445 
L 125.0132 -393.590445 
L 125.0132 -393.590445 
L 130.48354 -393.590445 
L 130.48354 -393.590445 
L 130.686145 -393.590445 
L 130.686145 -392.685268 
L 131.699171 -392.685268 
L 131.699171 -392.685268 
L 133.117407 -392.685268 
L 133.117407 -392.685268 
L 133.725223 -392.685268 
L 133.725223 -392.685268 
L 134.535643 -392.685268 
L 134.535643 -391.782113 
L 134.738249 -391.782113 
L 134.738249 -391.782113 
L 135.143459 -391.782113 
L 135.143459 -391.782113 
L 135.346064 -391.782113 
L 135.346064 -391.782113 
L 135.548669 -391.782113 
L 135.548669 -390.880575 
L 136.35909 -390.880575 
L 136.35909 -390.880575 
L 138.182537 -390.880575 
L 138.182537 -389.984064 
L 138.385142 -389.984064 
L 138.385142 -389.984064 
L 139.600773 -389.984064 
L 139.600773 -389.984064 
L 140.005983 -389.984064 
L 140.005983 -389.984064 
L 140.411194 -389.984064 
L 140.411194 -389.984064 
L 142.032035 -389.984064 
L 142.032035 -389.984064 
L 142.437245 -389.984064 
L 142.437245 -389.984064 
L 143.247666 -389.984064 
L 143.247666 -389.984064 
L 144.058087 -389.984064 
L 144.058087 -389.984064 
L 144.868508 -389.984064 
L 144.868508 -389.052567 
L 145.678928 -389.052567 
L 145.678928 -389.052567 
L 146.489349 -389.052567 
L 146.489349 -389.052567 
L 146.89456 -389.052567 
L 146.89456 -389.052567 
L 147.29977 -389.052567 
L 147.29977 -388.116962 
L 148.515401 -388.116962 
L 148.515401 -388.116962 
L 149.325822 -388.116962 
L 149.325822 -388.116962 
L 149.528427 -388.116962 
L 149.528427 -388.116962 
L 150.338848 -388.116962 
L 150.338848 -388.116962 
L 150.541453 -388.116962 
L 150.541453 -388.116962 
L 150.744058 -388.116962 
L 150.744058 -387.167035 
L 151.351874 -387.167035 
L 151.351874 -387.167035 
L 151.757084 -387.167035 
L 151.757084 -386.22485 
L 153.17532 -386.22485 
L 153.17532 -386.22485 
L 153.580531 -386.22485 
L 153.580531 -386.22485 
L 153.783136 -386.22485 
L 153.783136 -385.27997 
L 153.985741 -385.27997 
L 153.985741 -385.27997 
L 154.593556 -385.27997 
L 154.593556 -385.27997 
L 155.201372 -385.27997 
L 155.201372 -385.27997 
L 155.809188 -385.27997 
L 155.809188 -385.27997 
L 156.011793 -385.27997 
L 156.011793 -385.27997 
L 156.214398 -385.27997 
L 156.214398 -384.317632 
L 156.822213 -384.317632 
L 156.822213 -384.317632 
L 158.24045 -384.317632 
L 158.24045 -384.317632 
L 158.443055 -384.317632 
L 158.443055 -384.317632 
L 158.64566 -384.317632 
L 158.64566 -384.317632 
L 158.848265 -384.317632 
L 158.848265 -384.317632 
L 159.05087 -384.317632 
L 159.05087 -384.317632 
L 159.456081 -384.317632 
L 159.456081 -384.317632 
L 160.266502 -384.317632 
L 160.266502 -384.317632 
L 160.469107 -384.317632 
L 160.469107 -383.306743 
L 160.671712 -383.306743 
L 160.671712 -382.286482 
L 160.874317 -382.286482 
L 160.874317 -382.286482 
L 161.076922 -382.286482 
L 161.076922 -382.286482 
L 161.279528 -382.286482 
L 161.279528 -381.244998 
L 161.684738 -381.244998 
L 161.684738 -381.244998 
L 162.089948 -381.244998 
L 162.089948 -381.244998 
L 162.292553 -381.244998 
L 162.292553 -381.244998 
L 162.697764 -381.244998 
L 162.697764 -381.244998 
L 163.102974 -381.244998 
L 163.102974 -381.244998 
L 163.305579 -381.244998 
L 163.305579 -381.244998 
L 163.508185 -381.244998 
L 163.508185 -381.244998 
L 163.71079 -381.244998 
L 163.71079 -381.244998 
L 164.52121 -381.244998 
L 164.52121 -381.244998 
L 164.723816 -381.244998 
L 164.723816 -381.244998 
L 165.331631 -381.244998 
L 165.331631 -381.244998 
L 165.939447 -381.244998 
L 165.939447 -381.244998 
L 166.142052 -381.244998 
L 166.142052 -381.244998 
L 166.344657 -381.244998 
L 166.344657 -381.244998 
L 166.749867 -381.244998 
L 166.749867 -381.244998 
L 167.155078 -381.244998 
L 167.155078 -381.244998 
L 167.560288 -381.244998 
L 167.560288 -381.244998 
L 167.762893 -381.244998 
L 167.762893 -381.244998 
L 168.370709 -381.244998 
L 168.370709 -381.244998 
L 168.573314 -381.244998 
L 168.573314 -381.244998 
L 169.18113 -381.244998 
L 169.18113 -381.244998 
L 169.58634 -381.244998 
L 169.58634 -381.244998 
L 169.788945 -381.244998 
L 169.788945 -381.244998 
L 169.99155 -381.244998 
L 169.99155 -381.244998 
L 170.194156 -381.244998 
L 170.194156 -379.93844 
L 171.004576 -379.93844 
L 171.004576 -379.93844 
L 171.207181 -379.93844 
L 171.207181 -379.93844 
L 171.409787 -379.93844 
L 171.409787 -379.93844 
L 172.220207 -379.93844 
L 172.220207 -379.93844 
L 172.422813 -379.93844 
L 172.422813 -379.93844 
L 172.625418 -379.93844 
L 172.625418 -379.93844 
L 173.030628 -379.93844 
L 173.030628 -379.93844 
L 173.435839 -379.93844 
L 173.435839 -379.93844 
L 173.841049 -379.93844 
L 173.841049 -379.93844 
L 174.246259 -379.93844 
L 174.246259 -379.93844 
L 174.854075 -379.93844 
L 174.854075 -378.548179 
L 175.05668 -378.548179 
L 175.05668 -378.548179 
L 175.664496 -378.548179 
L 175.664496 -378.548179 
L 176.069706 -378.548179 
L 176.069706 -378.548179 
L 176.677521 -378.548179 
L 176.677521 -378.548179 
L 177.082732 -378.548179 
L 177.082732 -378.548179 
L 177.893153 -378.548179 
L 177.893153 -378.548179 
L 178.500968 -378.548179 
L 178.500968 -378.548179 
L 178.703573 -378.548179 
L 178.703573 -378.548179 
L 179.108784 -378.548179 
L 179.108784 -378.548179 
L 180.12181 -378.548179 
L 180.12181 -378.548179 
L 180.324415 -378.548179 
L 180.324415 -378.548179 
L 180.729625 -378.548179 
L 180.729625 -378.548179 
L 180.93223 -378.548179 
L 180.93223 -376.994295 
L 181.337441 -376.994295 
L 181.337441 -376.994295 
L 181.540046 -376.994295 
L 181.540046 -376.994295 
L 185.389544 -376.994295 
L 185.389544 -376.994295 
L 185.99736 -376.994295 
L 185.99736 -376.994295 
L 189.441648 -376.994295 
L 189.441648 -376.994295 
L 190.252069 -376.994295 
L 190.252069 -376.994295 
L 192.683331 -376.994295 
L 192.683331 -376.994295 
L 197.74846 -376.994295 
L 197.74846 -376.994295 
L 198.964092 -376.994295 
L 198.964092 -376.994295 
L 200.990143 -376.994295 
L 200.990143 -376.994295 
L 204.231826 -376.994295 
L 204.231826 -376.994295 
L 206.257878 -376.994295 
L 206.257878 -375.334775 
L 206.460483 -375.334775 
L 206.460483 -375.334775 
L 207.270904 -375.334775 
L 207.270904 -375.334775 
L 207.676114 -375.334775 
L 207.676114 -375.334775 
L 208.28393 -375.334775 
L 208.28393 -375.334775 
L 209.296956 -375.334775 
L 209.296956 -375.334775 
L 209.702166 -375.334775 
L 209.702166 -373.641054 
L 212.336034 -373.641054 
L 212.336034 -371.979775 
L 212.538639 -371.979775 
L 212.538639 -371.979775 
L 212.741244 -371.979775 
L 212.741244 -371.979775 
L 213.551665 -371.979775 
L 213.551665 -371.979775 
L 214.15948 -371.979775 
L 214.15948 -371.979775 
L 214.564691 -371.979775 
L 214.564691 -371.979775 
L 214.767296 -371.979775 
L 214.767296 -371.979775 
L 215.780322 -371.979775 
L 215.780322 -371.979775 
L 216.185532 -371.979775 
L 216.185532 -371.979775 
L 216.388137 -371.979775 
L 216.388137 -370.182794 
L 216.995953 -370.182794 
L 216.995953 -370.182794 
L 217.401163 -370.182794 
L 217.401163 -368.401852 
L 217.603768 -368.401852 
L 217.603768 -366.649279 
L 217.806374 -366.649279 
L 217.806374 -366.649279 
L 218.414189 -366.649279 
L 218.414189 -366.649279 
L 220.035031 -366.649279 
L 220.035031 -366.649279 
L 220.237636 -366.649279 
L 220.237636 -366.649279 
L 220.440241 -366.649279 
L 220.440241 -366.649279 
L 221.453267 -366.649279 
L 221.453267 -366.649279 
L 221.655872 -366.649279 
L 221.655872 -366.649279 
L 221.858477 -366.649279 
L 221.858477 -366.649279 
L 222.668898 -366.649279 
L 222.668898 -366.649279 
L 223.479319 -366.649279 
L 223.479319 -366.649279 
L 223.681924 -366.649279 
L 223.681924 -366.649279 
L 223.884529 -366.649279 
L 223.884529 -366.649279 
L 224.087134 -366.649279 
L 224.087134 -366.649279 
L 224.69495 -366.649279 
L 224.69495 -366.649279 
L 224.897555 -366.649279 
L 224.897555 -366.649279 
L 225.10016 -366.649279 
L 225.10016 -366.649279 
L 225.302765 -366.649279 
L 225.302765 -366.649279 
L 225.505371 -366.649279 
L 225.505371 -366.649279 
L 225.707976 -366.649279 
L 225.707976 -366.649279 
L 225.910581 -366.649279 
L 225.910581 -366.649279 
L 226.518396 -366.649279 
L 226.518396 -366.649279 
L 226.923607 -366.649279 
L 226.923607 -366.649279 
L 227.126212 -366.649279 
L 227.126212 -366.649279 
L 227.328817 -366.649279 
L 227.328817 -366.649279 
L 227.531422 -366.649279 
L 227.531422 -366.649279 
L 227.734028 -366.649279 
L 227.734028 -366.649279 
L 227.936633 -366.649279 
L 227.936633 -366.649279 
L 228.139238 -366.649279 
L 228.139238 -366.649279 
L 228.341843 -366.649279 
L 228.341843 -366.649279 
L 228.544448 -366.649279 
L 228.544448 -366.649279 
L 228.747053 -366.649279 
L 228.747053 -366.649279 
L 228.949659 -366.649279 
L 228.949659 -366.649279 
L 229.152264 -366.649279 
L 229.152264 -366.649279 
L 229.557474 -366.649279 
L 229.557474 -366.649279 
L 229.760079 -366.649279 
L 229.760079 -366.649279 
L 229.962685 -366.649279 
L 229.962685 -363.585861 
L 230.16529 -363.585861 
L 230.16529 -363.585861 
L 230.5705 -363.585861 
L 230.5705 -363.585861 
L 230.773105 -363.585861 
L 230.773105 -363.585861 
L 231.178316 -363.585861 
L 231.178316 -363.585861 
L 231.380921 -363.585861 
L 231.380921 -363.585861 
L 231.583526 -363.585861 
L 231.583526 -363.585861 
L 231.786131 -363.585861 
L 231.786131 -363.585861 
L 232.191342 -363.585861 
L 232.191342 -363.585861 
L 232.596552 -363.585861 
L 232.596552 -363.585861 
L 232.799157 -363.585861 
L 232.799157 -363.585861 
L 233.204368 -363.585861 
L 233.204368 -363.585861 
L 234.217393 -363.585861 
L 234.217393 -363.585861 
L 234.825209 -363.585861 
L 234.825209 -363.585861 
L 235.230419 -363.585861 
L 235.230419 -363.585861 
L 235.838235 -363.585861 
L 235.838235 -363.585861 
L 236.243445 -363.585861 
L 236.243445 -363.585861 
L 236.44605 -363.585861 
L 236.44605 -363.585861 
L 236.851261 -363.585861 
L 236.851261 -363.585861 
L 237.053866 -363.585861 
L 237.053866 -363.585861 
L 237.256471 -363.585861 
L 237.256471 -363.585861 
L 237.661682 -363.585861 
L 237.661682 -358.629143 
L 237.864287 -358.629143 
L 237.864287 -358.629143 
L 238.877313 -358.629143 
L 238.877313 -358.629143 
L 239.282523 -358.629143 
L 239.282523 -358.629143 
L 239.687733 -358.629143 
L 239.687733 -358.629143 
L 240.498154 -358.629143 
L 240.498154 -358.629143 
L 242.118996 -358.629143 
L 242.118996 -358.629143 
L 243.132021 -358.629143 
L 243.132021 -358.629143 
L 244.145047 -358.629143 
L 244.145047 -358.629143 
L 244.347653 -358.629143 
L 244.347653 -358.629143 
L 245.360679 -358.629143 
L 245.360679 -358.629143 
L 246.98152 -358.629143 
L 246.98152 -358.629143 
L 248.197151 -358.629143 
L 248.197151 -358.629143 
L 248.399756 -358.629143 
L 248.399756 -358.629143 
L 248.602361 -358.629143 
L 248.602361 -358.629143 
L 248.804967 -358.629143 
L 248.804967 -358.629143 
L 249.615387 -358.629143 
L 249.615387 -358.629143 
L 249.817993 -358.629143 
L 249.817993 -358.629143 
L 250.831018 -358.629143 
L 250.831018 -358.629143 
L 253.262281 -358.629143 
L 253.262281 -358.629143 
L 255.288332 -358.629143 
L 255.288332 -358.629143 
L 256.098753 -358.629143 
L 256.098753 -358.629143 
L 256.706569 -358.629143 
L 256.706569 -358.629143 
L 258.530015 -358.629143 
L 258.530015 -358.629143 
L 259.948252 -358.629143 
L 259.948252 -358.629143 
L 261.366488 -358.629143 
L 261.366488 -346.537592 
L 267.444643 -346.537592 
L 267.444643 -346.537592 
L 269.470695 -346.537592 
L 269.470695 -335.896941 
L 271.294142 -335.896941 
L 271.294142 -335.896941 
L 288.312977 -335.896941 
L 288.312977 -335.896941 
L 296.214579 -335.896941 
L 296.214579 -335.896941 
L 298.038026 -335.896941 
L 298.038026 -335.896941 
L 299.051052 -335.896941 
L 299.051052 -335.896941 
L 300.469288 -335.896941 
L 300.469288 -335.896941 
L 300.874499 -335.896941 
L 300.874499 -335.896941 
L 301.279709 -335.896941 
L 301.279709 -335.896941 
L 303.508366 -335.896941 
L 303.508366 -335.896941 
L 303.710971 -335.896941 
L 303.710971 -335.896941 
L 304.723997 -335.896941 
L 304.723997 -335.896941 
L 304.926602 -335.896941 
L 304.926602 -335.896941 
L 305.129208 -335.896941 
L 305.129208 -335.896941 
L 305.331813 -335.896941 
L 305.331813 -335.896941 
L 306.142233 -335.896941 
L 306.142233 -335.896941 
L 306.547444 -335.896941 
L 306.547444 -335.896941 
L 307.56047 -335.896941 
L 307.56047 -335.896941 
L 308.37089 -335.896941 
L 308.37089 -335.896941 
L 311.409968 -335.896941 
L 311.409968 -335.896941 
L 323.768884 -335.896941 
L 323.768884 -335.896941 
L 343.826798 -335.896941 
L 343.826798 -244.060276 
L 372.394128 -244.060276 
L 372.394128 -244.060276 
L 465.592513 -244.060276 
L 465.592513 -244.060276 
L 485.245215 -244.060276 
L 485.245215 -244.060276 
L 493.349423 -244.060276 
L 493.349423 -244.060276 
L 493.349423 -370.380719 
L 493.349423 -370.380719 
L 493.349423 -370.380719 
L 485.245215 -370.380719 
L 485.245215 -370.380719 
L 465.592513 -370.380719 
L 465.592513 -370.380719 
L 372.394128 -370.380719 
L 372.394128 -370.380719 
L 343.826798 -370.380719 
L 343.826798 -375.831223 
L 323.768884 -375.831223 
L 323.768884 -375.831223 
L 311.409968 -375.831223 
L 311.409968 -375.831223 
L 308.37089 -375.831223 
L 308.37089 -375.831223 
L 307.56047 -375.831223 
L 307.56047 -375.831223 
L 306.547444 -375.831223 
L 306.547444 -375.831223 
L 306.142233 -375.831223 
L 306.142233 -375.831223 
L 305.331813 -375.831223 
L 305.331813 -375.831223 
L 305.129208 -375.831223 
L 305.129208 -375.831223 
L 304.926602 -375.831223 
L 304.926602 -375.831223 
L 304.723997 -375.831223 
L 304.723997 -375.831223 
L 303.710971 -375.831223 
L 303.710971 -375.831223 
L 303.508366 -375.831223 
L 303.508366 -375.831223 
L 301.279709 -375.831223 
L 301.279709 -375.831223 
L 300.874499 -375.831223 
L 300.874499 -375.831223 
L 300.469288 -375.831223 
L 300.469288 -375.831223 
L 299.051052 -375.831223 
L 299.051052 -375.831223 
L 298.038026 -375.831223 
L 298.038026 -375.831223 
L 296.214579 -375.831223 
L 296.214579 -375.831223 
L 288.312977 -375.831223 
L 288.312977 -375.831223 
L 271.294142 -375.831223 
L 271.294142 -375.831223 
L 269.470695 -375.831223 
L 269.470695 -379.219776 
L 267.444643 -379.219776 
L 267.444643 -379.219776 
L 261.366488 -379.219776 
L 261.366488 -381.698351 
L 259.948252 -381.698351 
L 259.948252 -381.698351 
L 258.530015 -381.698351 
L 258.530015 -381.698351 
L 256.706569 -381.698351 
L 256.706569 -381.698351 
L 256.098753 -381.698351 
L 256.098753 -381.698351 
L 255.288332 -381.698351 
L 255.288332 -381.698351 
L 253.262281 -381.698351 
L 253.262281 -381.698351 
L 250.831018 -381.698351 
L 250.831018 -381.698351 
L 249.817993 -381.698351 
L 249.817993 -381.698351 
L 249.615387 -381.698351 
L 249.615387 -381.698351 
L 248.804967 -381.698351 
L 248.804967 -381.698351 
L 248.602361 -381.698351 
L 248.602361 -381.698351 
L 248.399756 -381.698351 
L 248.399756 -381.698351 
L 248.197151 -381.698351 
L 248.197151 -381.698351 
L 246.98152 -381.698351 
L 246.98152 -381.698351 
L 245.360679 -381.698351 
L 245.360679 -381.698351 
L 244.347653 -381.698351 
L 244.347653 -381.698351 
L 244.145047 -381.698351 
L 244.145047 -381.698351 
L 243.132021 -381.698351 
L 243.132021 -381.698351 
L 242.118996 -381.698351 
L 242.118996 -381.698351 
L 240.498154 -381.698351 
L 240.498154 -381.698351 
L 239.687733 -381.698351 
L 239.687733 -381.698351 
L 239.282523 -381.698351 
L 239.282523 -381.698351 
L 238.877313 -381.698351 
L 238.877313 -381.698351 
L 237.864287 -381.698351 
L 237.864287 -381.698351 
L 237.661682 -381.698351 
L 237.661682 -383.513193 
L 237.256471 -383.513193 
L 237.256471 -383.513193 
L 237.053866 -383.513193 
L 237.053866 -383.513193 
L 236.851261 -383.513193 
L 236.851261 -383.513193 
L 236.44605 -383.513193 
L 236.44605 -383.513193 
L 236.243445 -383.513193 
L 236.243445 -383.513193 
L 235.838235 -383.513193 
L 235.838235 -383.513193 
L 235.230419 -383.513193 
L 235.230419 -383.513193 
L 234.825209 -383.513193 
L 234.825209 -383.513193 
L 234.217393 -383.513193 
L 234.217393 -383.513193 
L 233.204368 -383.513193 
L 233.204368 -383.513193 
L 232.799157 -383.513193 
L 232.799157 -383.513193 
L 232.596552 -383.513193 
L 232.596552 -383.513193 
L 232.191342 -383.513193 
L 232.191342 -383.513193 
L 231.786131 -383.513193 
L 231.786131 -383.513193 
L 231.583526 -383.513193 
L 231.583526 -383.513193 
L 231.380921 -383.513193 
L 231.380921 -383.513193 
L 231.178316 -383.513193 
L 231.178316 -383.513193 
L 230.773105 -383.513193 
L 230.773105 -383.513193 
L 230.5705 -383.513193 
L 230.5705 -383.513193 
L 230.16529 -383.513193 
L 230.16529 -383.513193 
L 229.962685 -383.513193 
L 229.962685 -384.938185 
L 229.760079 -384.938185 
L 229.760079 -384.938185 
L 229.557474 -384.938185 
L 229.557474 -384.938185 
L 229.152264 -384.938185 
L 229.152264 -384.938185 
L 228.949659 -384.938185 
L 228.949659 -384.938185 
L 228.747053 -384.938185 
L 228.747053 -384.938185 
L 228.544448 -384.938185 
L 228.544448 -384.938185 
L 228.341843 -384.938185 
L 228.341843 -384.938185 
L 228.139238 -384.938185 
L 228.139238 -384.938185 
L 227.936633 -384.938185 
L 227.936633 -384.938185 
L 227.734028 -384.938185 
L 227.734028 -384.938185 
L 227.531422 -384.938185 
L 227.531422 -384.938185 
L 227.328817 -384.938185 
L 227.328817 -384.938185 
L 227.126212 -384.938185 
L 227.126212 -384.938185 
L 226.923607 -384.938185 
L 226.923607 -384.938185 
L 226.518396 -384.938185 
L 226.518396 -384.938185 
L 225.910581 -384.938185 
L 225.910581 -384.938185 
L 225.707976 -384.938185 
L 225.707976 -384.938185 
L 225.505371 -384.938185 
L 225.505371 -384.938185 
L 225.302765 -384.938185 
L 225.302765 -384.938185 
L 225.10016 -384.938185 
L 225.10016 -384.938185 
L 224.897555 -384.938185 
L 224.897555 -384.938185 
L 224.69495 -384.938185 
L 224.69495 -384.938185 
L 224.087134 -384.938185 
L 224.087134 -384.938185 
L 223.884529 -384.938185 
L 223.884529 -384.938185 
L 223.681924 -384.938185 
L 223.681924 -384.938185 
L 223.479319 -384.938185 
L 223.479319 -384.938185 
L 222.668898 -384.938185 
L 222.668898 -384.938185 
L 221.858477 -384.938185 
L 221.858477 -384.938185 
L 221.655872 -384.938185 
L 221.655872 -384.938185 
L 221.453267 -384.938185 
L 221.453267 -384.938185 
L 220.440241 -384.938185 
L 220.440241 -384.938185 
L 220.237636 -384.938185 
L 220.237636 -384.938185 
L 220.035031 -384.938185 
L 220.035031 -384.938185 
L 218.414189 -384.938185 
L 218.414189 -384.938185 
L 217.806374 -384.938185 
L 217.806374 -384.938185 
L 217.603768 -384.938185 
L 217.603768 -385.991509 
L 217.401163 -385.991509 
L 217.401163 -387.030017 
L 216.995953 -387.030017 
L 216.995953 -387.030017 
L 216.388137 -387.030017 
L 216.388137 -388.047153 
L 216.185532 -388.047153 
L 216.185532 -388.047153 
L 215.780322 -388.047153 
L 215.780322 -388.047153 
L 214.767296 -388.047153 
L 214.767296 -388.047153 
L 214.564691 -388.047153 
L 214.564691 -388.047153 
L 214.15948 -388.047153 
L 214.15948 -388.047153 
L 213.551665 -388.047153 
L 213.551665 -388.047153 
L 212.741244 -388.047153 
L 212.741244 -388.047153 
L 212.538639 -388.047153 
L 212.538639 -388.047153 
L 212.336034 -388.047153 
L 212.336034 -388.998425 
L 209.702166 -388.998425 
L 209.702166 -389.933697 
L 209.296956 -389.933697 
L 209.296956 -389.933697 
L 208.28393 -389.933697 
L 208.28393 -389.933697 
L 207.676114 -389.933697 
L 207.676114 -389.933697 
L 207.270904 -389.933697 
L 207.270904 -389.933697 
L 206.460483 -389.933697 
L 206.460483 -389.933697 
L 206.257878 -389.933697 
L 206.257878 -390.832322 
L 204.231826 -390.832322 
L 204.231826 -390.832322 
L 200.990143 -390.832322 
L 200.990143 -390.832322 
L 198.964092 -390.832322 
L 198.964092 -390.832322 
L 197.74846 -390.832322 
L 197.74846 -390.832322 
L 192.683331 -390.832322 
L 192.683331 -390.832322 
L 190.252069 -390.832322 
L 190.252069 -390.832322 
L 189.441648 -390.832322 
L 189.441648 -390.832322 
L 185.99736 -390.832322 
L 185.99736 -390.832322 
L 185.389544 -390.832322 
L 185.389544 -390.832322 
L 181.540046 -390.832322 
L 181.540046 -390.832322 
L 181.337441 -390.832322 
L 181.337441 -390.832322 
L 180.93223 -390.832322 
L 180.93223 -391.675872 
L 180.729625 -391.675872 
L 180.729625 -391.675872 
L 180.324415 -391.675872 
L 180.324415 -391.675872 
L 180.12181 -391.675872 
L 180.12181 -391.675872 
L 179.108784 -391.675872 
L 179.108784 -391.675872 
L 178.703573 -391.675872 
L 178.703573 -391.675872 
L 178.500968 -391.675872 
L 178.500968 -391.675872 
L 177.893153 -391.675872 
L 177.893153 -391.675872 
L 177.082732 -391.675872 
L 177.082732 -391.675872 
L 176.677521 -391.675872 
L 176.677521 -391.675872 
L 176.069706 -391.675872 
L 176.069706 -391.675872 
L 175.664496 -391.675872 
L 175.664496 -391.675872 
L 175.05668 -391.675872 
L 175.05668 -391.675872 
L 174.854075 -391.675872 
L 174.854075 -392.450555 
L 174.246259 -392.450555 
L 174.246259 -392.450555 
L 173.841049 -392.450555 
L 173.841049 -392.450555 
L 173.435839 -392.450555 
L 173.435839 -392.450555 
L 173.030628 -392.450555 
L 173.030628 -392.450555 
L 172.625418 -392.450555 
L 172.625418 -392.450555 
L 172.422813 -392.450555 
L 172.422813 -392.450555 
L 172.220207 -392.450555 
L 172.220207 -392.450555 
L 171.409787 -392.450555 
L 171.409787 -392.450555 
L 171.207181 -392.450555 
L 171.207181 -392.450555 
L 171.004576 -392.450555 
L 171.004576 -392.450555 
L 170.194156 -392.450555 
L 170.194156 -393.181105 
L 169.99155 -393.181105 
L 169.99155 -393.181105 
L 169.788945 -393.181105 
L 169.788945 -393.181105 
L 169.58634 -393.181105 
L 169.58634 -393.181105 
L 169.18113 -393.181105 
L 169.18113 -393.181105 
L 168.573314 -393.181105 
L 168.573314 -393.181105 
L 168.370709 -393.181105 
L 168.370709 -393.181105 
L 167.762893 -393.181105 
L 167.762893 -393.181105 
L 167.560288 -393.181105 
L 167.560288 -393.181105 
L 167.155078 -393.181105 
L 167.155078 -393.181105 
L 166.749867 -393.181105 
L 166.749867 -393.181105 
L 166.344657 -393.181105 
L 166.344657 -393.181105 
L 166.142052 -393.181105 
L 166.142052 -393.181105 
L 165.939447 -393.181105 
L 165.939447 -393.181105 
L 165.331631 -393.181105 
L 165.331631 -393.181105 
L 164.723816 -393.181105 
L 164.723816 -393.181105 
L 164.52121 -393.181105 
L 164.52121 -393.181105 
L 163.71079 -393.181105 
L 163.71079 -393.181105 
L 163.508185 -393.181105 
L 163.508185 -393.181105 
L 163.305579 -393.181105 
L 163.305579 -393.181105 
L 163.102974 -393.181105 
L 163.102974 -393.181105 
L 162.697764 -393.181105 
L 162.697764 -393.181105 
L 162.292553 -393.181105 
L 162.292553 -393.181105 
L 162.089948 -393.181105 
L 162.089948 -393.181105 
L 161.684738 -393.181105 
L 161.684738 -393.181105 
L 161.279528 -393.181105 
L 161.279528 -393.812603 
L 161.076922 -393.812603 
L 161.076922 -393.812603 
L 160.874317 -393.812603 
L 160.874317 -393.812603 
L 160.671712 -393.812603 
L 160.671712 -394.425408 
L 160.469107 -394.425408 
L 160.469107 -395.023328 
L 160.266502 -395.023328 
L 160.266502 -395.023328 
L 159.456081 -395.023328 
L 159.456081 -395.023328 
L 159.05087 -395.023328 
L 159.05087 -395.023328 
L 158.848265 -395.023328 
L 158.848265 -395.023328 
L 158.64566 -395.023328 
L 158.64566 -395.023328 
L 158.443055 -395.023328 
L 158.443055 -395.023328 
L 158.24045 -395.023328 
L 158.24045 -395.023328 
L 156.822213 -395.023328 
L 156.822213 -395.023328 
L 156.214398 -395.023328 
L 156.214398 -395.593618 
L 156.011793 -395.593618 
L 156.011793 -395.593618 
L 155.809188 -395.593618 
L 155.809188 -395.593618 
L 155.201372 -395.593618 
L 155.201372 -395.593618 
L 154.593556 -395.593618 
L 154.593556 -395.593618 
L 153.985741 -395.593618 
L 153.985741 -395.593618 
L 153.783136 -395.593618 
L 153.783136 -396.146747 
L 153.580531 -396.146747 
L 153.580531 -396.146747 
L 153.17532 -396.146747 
L 153.17532 -396.146747 
L 151.757084 -396.146747 
L 151.757084 -396.686981 
L 151.351874 -396.686981 
L 151.351874 -396.686981 
L 150.744058 -396.686981 
L 150.744058 -397.216398 
L 150.541453 -397.216398 
L 150.541453 -397.216398 
L 150.338848 -397.216398 
L 150.338848 -397.216398 
L 149.528427 -397.216398 
L 149.528427 -397.216398 
L 149.325822 -397.216398 
L 149.325822 -397.216398 
L 148.515401 -397.216398 
L 148.515401 -397.216398 
L 147.29977 -397.216398 
L 147.29977 -397.727565 
L 146.89456 -397.727565 
L 146.89456 -397.727565 
L 146.489349 -397.727565 
L 146.489349 -397.727565 
L 145.678928 -397.727565 
L 145.678928 -397.727565 
L 144.868508 -397.727565 
L 144.868508 -398.222438 
L 144.058087 -398.222438 
L 144.058087 -398.222438 
L 143.247666 -398.222438 
L 143.247666 -398.222438 
L 142.437245 -398.222438 
L 142.437245 -398.222438 
L 142.032035 -398.222438 
L 142.032035 -398.222438 
L 140.411194 -398.222438 
L 140.411194 -398.222438 
L 140.005983 -398.222438 
L 140.005983 -398.222438 
L 139.600773 -398.222438 
L 139.600773 -398.222438 
L 138.385142 -398.222438 
L 138.385142 -398.222438 
L 138.182537 -398.222438 
L 138.182537 -398.692356 
L 136.35909 -398.692356 
L 136.35909 -398.692356 
L 135.548669 -398.692356 
L 135.548669 -399.146365 
L 135.346064 -399.146365 
L 135.346064 -399.146365 
L 135.143459 -399.146365 
L 135.143459 -399.146365 
L 134.738249 -399.146365 
L 134.738249 -399.146365 
L 134.535643 -399.146365 
L 134.535643 -399.581186 
L 133.725223 -399.581186 
L 133.725223 -399.581186 
L 133.117407 -399.581186 
L 133.117407 -399.581186 
L 131.699171 -399.581186 
L 131.699171 -399.581186 
L 130.686145 -399.581186 
L 130.686145 -399.993764 
L 130.48354 -399.993764 
L 130.48354 -399.993764 
L 125.0132 -399.993764 
L 125.0132 -399.993764 
L 122.581938 -399.993764 
L 122.581938 -399.993764 
L 120.555886 -399.993764 
L 120.555886 -399.993764 
L 117.922018 -399.993764 
L 117.922018 -399.993764 
L 116.503782 -399.993764 
L 116.503782 -400.377354 
L 113.059494 -400.377354 
L 113.059494 -400.377354 
L 112.046468 -400.377354 
L 112.046468 -400.728914 
L 110.628232 -400.728914 
L 110.628232 -400.728914 
L 107.791759 -400.728914 
L 107.791759 -401.035283 
L 106.576128 -401.035283 
L 106.576128 -401.035283 
L 101.510998 -401.035283 
L 101.510998 -401.035283 
L 99.282341 -401.035283 
L 99.282341 -401.035283 
L 99.079736 -401.035283 
L 99.079736 -401.035283 
L 98.877131 -401.035283 
L 98.877131 -401.268435 
L 98.269316 -401.268435 
L 98.269316 -401.268435 
L 97.053684 -401.268435 
L 97.053684 -401.268435 
L 95.432843 -401.268435 
L 95.432843 -401.359347 
L 95.230238 -401.359347 
L 95.230238 -401.359347 
L 92.393765 -401.359347 
L 92.393765 -401.359347 
L 92.19116 -401.359347 
L 92.19116 -401.359347 
L 91.178134 -401.359347 
L 91.178134 -401.359347 
L 90.975529 -401.359347 
L 90.975529 -401.359347 
L 90.772924 -401.359347 
L 90.772924 -401.359347 
L 90.570319 -401.359347 
L 90.570319 -401.359347 
L 89.354688 -401.359347 
L 89.354688 -401.359347 
L 88.139056 -401.359347 
L 88.139056 -401.359347 
L 87.936451 -401.359347 
L 87.936451 -401.359347 
L 87.733846 -401.359347 
z
" style="stroke: #0000ff; stroke-opacity: 0.25"/>
    </defs>
    <g clip-path="url(#p8a25f96248)">
     <use xlink:href="#md8246af9ab" x="0" y="434.796562" style="fill: #0000ff; fill-opacity: 0.25; stroke: #0000ff; stroke-opacity: 0.25"/>
    </g>
   </g>
   <g id="matplotlib.axis_1">
    <g id="xtick_1">
     <g id="line2d_1">
      <defs>
       <path id="m1418ffe7a8" d="M 0 0 
L 0 3.5 
" style="stroke: #000000; stroke-width: 0.8"/>
      </defs>
      <g>
       <use xlink:href="#m1418ffe7a8" x="89.354688" y="266.938125" style="stroke: #000000; stroke-width: 0.8"/>
      </g>
     </g>
     <g id="text_1">
      <!-- 0 -->
      <g transform="translate(86.173438 281.536562) scale(0.1 -0.1)">
       <defs>
        <path id="DejaVuSans-30" d="M 2034 4250 
Q 1547 4250 1301 3770 
Q 1056 3291 1056 2328 
Q 1056 1369 1301 889 
Q 1547 409 2034 409 
Q 2525 409 2770 889 
Q 3016 1369 3016 2328 
Q 3016 3291 2770 3770 
Q 2525 4250 2034 4250 
z
M 2034 4750 
Q 2819 4750 3233 4129 
Q 3647 3509 3647 2328 
Q 3647 1150 3233 529 
Q 2819 -91 2034 -91 
Q 1250 -91 836 529 
Q 422 1150 422 2328 
Q 422 3509 836 4129 
Q 1250 4750 2034 4750 
z
" transform="scale(0.015625)"/>
       </defs>
       <use xlink:href="#DejaVuSans-30"/>
      </g>
     </g>
    </g>
    <g id="xtick_2">
     <g id="line2d_2">
      <g>
       <use xlink:href="#m1418ffe7a8" x="140.005983" y="266.938125" style="stroke: #000000; stroke-width: 0.8"/>
      </g>
     </g>
     <g id="text_2">
      <!-- 250 -->
      <g transform="translate(130.462233 281.536562) scale(0.1 -0.1)">
       <defs>
        <path id="DejaVuSans-32" d="M 1228 531 
L 3431 531 
L 3431 0 
L 469 0 
L 469 531 
Q 828 903 1448 1529 
Q 2069 2156 2228 2338 
Q 2531 2678 2651 2914 
Q 2772 3150 2772 3378 
Q 2772 3750 2511 3984 
Q 2250 4219 1831 4219 
Q 1534 4219 1204 4116 
Q 875 4013 500 3803 
L 500 4441 
Q 881 4594 1212 4672 
Q 1544 4750 1819 4750 
Q 2544 4750 2975 4387 
Q 3406 4025 3406 3419 
Q 3406 3131 3298 2873 
Q 3191 2616 2906 2266 
Q 2828 2175 2409 1742 
Q 1991 1309 1228 531 
z
" transform="scale(0.015625)"/>
        <path id="DejaVuSans-35" d="M 691 4666 
L 3169 4666 
L 3169 4134 
L 1269 4134 
L 1269 2991 
Q 1406 3038 1543 3061 
Q 1681 3084 1819 3084 
Q 2600 3084 3056 2656 
Q 3513 2228 3513 1497 
Q 3513 744 3044 326 
Q 2575 -91 1722 -91 
Q 1428 -91 1123 -41 
Q 819 9 494 109 
L 494 744 
Q 775 591 1075 516 
Q 1375 441 1709 441 
Q 2250 441 2565 725 
Q 2881 1009 2881 1497 
Q 2881 1984 2565 2268 
Q 2250 2553 1709 2553 
Q 1456 2553 1204 2497 
Q 953 2441 691 2322 
L 691 4666 
z
" transform="scale(0.015625)"/>
       </defs>
       <use xlink:href="#DejaVuSans-32"/>
       <use xlink:href="#DejaVuSans-35" x="63.623047"/>
       <use xlink:href="#DejaVuSans-30" x="127.246094"/>
      </g>
     </g>
    </g>
    <g id="xtick_3">
     <g id="line2d_3">
      <g>
       <use xlink:href="#m1418ffe7a8" x="190.657279" y="266.938125" style="stroke: #000000; stroke-width: 0.8"/>
      </g>
     </g>
     <g id="text_3">
      <!-- 500 -->
      <g transform="translate(181.113529 281.536562) scale(0.1 -0.1)">
       <use xlink:href="#DejaVuSans-35"/>
       <use xlink:href="#DejaVuSans-30" x="63.623047"/>
       <use xlink:href="#DejaVuSans-30" x="127.246094"/>
      </g>
     </g>
    </g>
    <g id="xtick_4">
     <g id="line2d_4">
      <g>
       <use xlink:href="#m1418ffe7a8" x="241.308575" y="266.938125" style="stroke: #000000; stroke-width: 0.8"/>
      </g>
     </g>
     <g id="text_4">
      <!-- 750 -->
      <g transform="translate(231.764825 281.536562) scale(0.1 -0.1)">
       <defs>
        <path id="DejaVuSans-37" d="M 525 4666 
L 3525 4666 
L 3525 4397 
L 1831 0 
L 1172 0 
L 2766 4134 
L 525 4134 
L 525 4666 
z
" transform="scale(0.015625)"/>
       </defs>
       <use xlink:href="#DejaVuSans-37"/>
       <use xlink:href="#DejaVuSans-35" x="63.623047"/>
       <use xlink:href="#DejaVuSans-30" x="127.246094"/>
      </g>
     </g>
    </g>
    <g id="xtick_5">
     <g id="line2d_5">
      <g>
       <use xlink:href="#m1418ffe7a8" x="291.959871" y="266.938125" style="stroke: #000000; stroke-width: 0.8"/>
      </g>
     </g>
     <g id="text_5">
      <!-- 1000 -->
      <g transform="translate(279.234871 281.536562) scale(0.1 -0.1)">
       <defs>
        <path id="DejaVuSans-31" d="M 794 531 
L 1825 531 
L 1825 4091 
L 703 3866 
L 703 4441 
L 1819 4666 
L 2450 4666 
L 2450 531 
L 3481 531 
L 3481 0 
L 794 0 
L 794 531 
z
" transform="scale(0.015625)"/>
       </defs>
       <use xlink:href="#DejaVuSans-31"/>
       <use xlink:href="#DejaVuSans-30" x="63.623047"/>
       <use xlink:href="#DejaVuSans-30" x="127.246094"/>
       <use xlink:href="#DejaVuSans-30" x="190.869141"/>
      </g>
     </g>
    </g>
    <g id="xtick_6">
     <g id="line2d_6">
      <g>
       <use xlink:href="#m1418ffe7a8" x="342.611166" y="266.938125" style="stroke: #000000; stroke-width: 0.8"/>
      </g>
     </g>
     <g id="text_6">
      <!-- 1250 -->
      <g transform="translate(329.886166 281.536562) scale(0.1 -0.1)">
       <use xlink:href="#DejaVuSans-31"/>
       <use xlink:href="#DejaVuSans-32" x="63.623047"/>
       <use xlink:href="#DejaVuSans-35" x="127.246094"/>
       <use xlink:href="#DejaVuSans-30" x="190.869141"/>
      </g>
     </g>
    </g>
    <g id="xtick_7">
     <g id="line2d_7">
      <g>
       <use xlink:href="#m1418ffe7a8" x="393.262462" y="266.938125" style="stroke: #000000; stroke-width: 0.8"/>
      </g>
     </g>
     <g id="text_7">
      <!-- 1500 -->
      <g transform="translate(380.537462 281.536562) scale(0.1 -0.1)">
       <use xlink:href="#DejaVuSans-31"/>
       <use xlink:href="#DejaVuSans-35" x="63.623047"/>
       <use xlink:href="#DejaVuSans-30" x="127.246094"/>
       <use xlink:href="#DejaVuSans-30" x="190.869141"/>
      </g>
     </g>
    </g>
    <g id="xtick_8">
     <g id="line2d_8">
      <g>
       <use xlink:href="#m1418ffe7a8" x="443.913758" y="266.938125" style="stroke: #000000; stroke-width: 0.8"/>
      </g>
     </g>
     <g id="text_8">
      <!-- 1750 -->
      <g transform="translate(431.188758 281.536562) scale(0.1 -0.1)">
       <use xlink:href="#DejaVuSans-31"/>
       <use xlink:href="#DejaVuSans-37" x="63.623047"/>
       <use xlink:href="#DejaVuSans-35" x="127.246094"/>
       <use xlink:href="#DejaVuSans-30" x="190.869141"/>
      </g>
     </g>
    </g>
    <g id="xtick_9">
     <g id="line2d_9">
      <g>
       <use xlink:href="#m1418ffe7a8" x="494.565054" y="266.938125" style="stroke: #000000; stroke-width: 0.8"/>
      </g>
     </g>
     <g id="text_9">
      <!-- 2000 -->
      <g transform="translate(481.840054 281.536562) scale(0.1 -0.1)">
       <use xlink:href="#DejaVuSans-32"/>
       <use xlink:href="#DejaVuSans-30" x="63.623047"/>
       <use xlink:href="#DejaVuSans-30" x="127.246094"/>
       <use xlink:href="#DejaVuSans-30" x="190.869141"/>
      </g>
     </g>
    </g>
    <g id="text_10">
     <!-- Days since Diagnosis -->
     <g transform="translate(237.491894 295.214687) scale(0.1 -0.1)">
      <defs>
       <path id="DejaVuSans-44" d="M 1259 4147 
L 1259 519 
L 2022 519 
Q 2988 519 3436 956 
Q 3884 1394 3884 2338 
Q 3884 3275 3436 3711 
Q 2988 4147 2022 4147 
L 1259 4147 
z
M 628 4666 
L 1925 4666 
Q 3281 4666 3915 4102 
Q 4550 3538 4550 2338 
Q 4550 1131 3912 565 
Q 3275 0 1925 0 
L 628 0 
L 628 4666 
z
" transform="scale(0.015625)"/>
       <path id="DejaVuSans-61" d="M 2194 1759 
Q 1497 1759 1228 1600 
Q 959 1441 959 1056 
Q 959 750 1161 570 
Q 1363 391 1709 391 
Q 2188 391 2477 730 
Q 2766 1069 2766 1631 
L 2766 1759 
L 2194 1759 
z
M 3341 1997 
L 3341 0 
L 2766 0 
L 2766 531 
Q 2569 213 2275 61 
Q 1981 -91 1556 -91 
Q 1019 -91 701 211 
Q 384 513 384 1019 
Q 384 1609 779 1909 
Q 1175 2209 1959 2209 
L 2766 2209 
L 2766 2266 
Q 2766 2663 2505 2880 
Q 2244 3097 1772 3097 
Q 1472 3097 1187 3025 
Q 903 2953 641 2809 
L 641 3341 
Q 956 3463 1253 3523 
Q 1550 3584 1831 3584 
Q 2591 3584 2966 3190 
Q 3341 2797 3341 1997 
z
" transform="scale(0.015625)"/>
       <path id="DejaVuSans-79" d="M 2059 -325 
Q 1816 -950 1584 -1140 
Q 1353 -1331 966 -1331 
L 506 -1331 
L 506 -850 
L 844 -850 
Q 1081 -850 1212 -737 
Q 1344 -625 1503 -206 
L 1606 56 
L 191 3500 
L 800 3500 
L 1894 763 
L 2988 3500 
L 3597 3500 
L 2059 -325 
z
" transform="scale(0.015625)"/>
       <path id="DejaVuSans-73" d="M 2834 3397 
L 2834 2853 
Q 2591 2978 2328 3040 
Q 2066 3103 1784 3103 
Q 1356 3103 1142 2972 
Q 928 2841 928 2578 
Q 928 2378 1081 2264 
Q 1234 2150 1697 2047 
L 1894 2003 
Q 2506 1872 2764 1633 
Q 3022 1394 3022 966 
Q 3022 478 2636 193 
Q 2250 -91 1575 -91 
Q 1294 -91 989 -36 
Q 684 19 347 128 
L 347 722 
Q 666 556 975 473 
Q 1284 391 1588 391 
Q 1994 391 2212 530 
Q 2431 669 2431 922 
Q 2431 1156 2273 1281 
Q 2116 1406 1581 1522 
L 1381 1569 
Q 847 1681 609 1914 
Q 372 2147 372 2553 
Q 372 3047 722 3315 
Q 1072 3584 1716 3584 
Q 2034 3584 2315 3537 
Q 2597 3491 2834 3397 
z
" transform="scale(0.015625)"/>
       <path id="DejaVuSans-20" transform="scale(0.015625)"/>
       <path id="DejaVuSans-69" d="M 603 3500 
L 1178 3500 
L 1178 0 
L 603 0 
L 603 3500 
z
M 603 4863 
L 1178 4863 
L 1178 4134 
L 603 4134 
L 603 4863 
z
" transform="scale(0.015625)"/>
       <path id="DejaVuSans-6e" d="M 3513 2113 
L 3513 0 
L 2938 0 
L 2938 2094 
Q 2938 2591 2744 2837 
Q 2550 3084 2163 3084 
Q 1697 3084 1428 2787 
Q 1159 2491 1159 1978 
L 1159 0 
L 581 0 
L 581 3500 
L 1159 3500 
L 1159 2956 
Q 1366 3272 1645 3428 
Q 1925 3584 2291 3584 
Q 2894 3584 3203 3211 
Q 3513 2838 3513 2113 
z
" transform="scale(0.015625)"/>
       <path id="DejaVuSans-63" d="M 3122 3366 
L 3122 2828 
Q 2878 2963 2633 3030 
Q 2388 3097 2138 3097 
Q 1578 3097 1268 2742 
Q 959 2388 959 1747 
Q 959 1106 1268 751 
Q 1578 397 2138 397 
Q 2388 397 2633 464 
Q 2878 531 3122 666 
L 3122 134 
Q 2881 22 2623 -34 
Q 2366 -91 2075 -91 
Q 1284 -91 818 406 
Q 353 903 353 1747 
Q 353 2603 823 3093 
Q 1294 3584 2113 3584 
Q 2378 3584 2631 3529 
Q 2884 3475 3122 3366 
z
" transform="scale(0.015625)"/>
       <path id="DejaVuSans-65" d="M 3597 1894 
L 3597 1613 
L 953 1613 
Q 991 1019 1311 708 
Q 1631 397 2203 397 
Q 2534 397 2845 478 
Q 3156 559 3463 722 
L 3463 178 
Q 3153 47 2828 -22 
Q 2503 -91 2169 -91 
Q 1331 -91 842 396 
Q 353 884 353 1716 
Q 353 2575 817 3079 
Q 1281 3584 2069 3584 
Q 2775 3584 3186 3129 
Q 3597 2675 3597 1894 
z
M 3022 2063 
Q 3016 2534 2758 2815 
Q 2500 3097 2075 3097 
Q 1594 3097 1305 2825 
Q 1016 2553 972 2059 
L 3022 2063 
z
" transform="scale(0.015625)"/>
       <path id="DejaVuSans-67" d="M 2906 1791 
Q 2906 2416 2648 2759 
Q 2391 3103 1925 3103 
Q 1463 3103 1205 2759 
Q 947 2416 947 1791 
Q 947 1169 1205 825 
Q 1463 481 1925 481 
Q 2391 481 2648 825 
Q 2906 1169 2906 1791 
z
M 3481 434 
Q 3481 -459 3084 -895 
Q 2688 -1331 1869 -1331 
Q 1566 -1331 1297 -1286 
Q 1028 -1241 775 -1147 
L 775 -588 
Q 1028 -725 1275 -790 
Q 1522 -856 1778 -856 
Q 2344 -856 2625 -561 
Q 2906 -266 2906 331 
L 2906 616 
Q 2728 306 2450 153 
Q 2172 0 1784 0 
Q 1141 0 747 490 
Q 353 981 353 1791 
Q 353 2603 747 3093 
Q 1141 3584 1784 3584 
Q 2172 3584 2450 3431 
Q 2728 3278 2906 2969 
L 2906 3500 
L 3481 3500 
L 3481 434 
z
" transform="scale(0.015625)"/>
       <path id="DejaVuSans-6f" d="M 1959 3097 
Q 1497 3097 1228 2736 
Q 959 2375 959 1747 
Q 959 1119 1226 758 
Q 1494 397 1959 397 
Q 2419 397 2687 759 
Q 2956 1122 2956 1747 
Q 2956 2369 2687 2733 
Q 2419 3097 1959 3097 
z
M 1959 3584 
Q 2709 3584 3137 3096 
Q 3566 2609 3566 1747 
Q 3566 888 3137 398 
Q 2709 -91 1959 -91 
Q 1206 -91 779 398 
Q 353 888 353 1747 
Q 353 2609 779 3096 
Q 1206 3584 1959 3584 
z
" transform="scale(0.015625)"/>
      </defs>
      <use xlink:href="#DejaVuSans-44"/>
      <use xlink:href="#DejaVuSans-61" x="77.001953"/>
      <use xlink:href="#DejaVuSans-79" x="138.28125"/>
      <use xlink:href="#DejaVuSans-73" x="197.460938"/>
      <use xlink:href="#DejaVuSans-20" x="249.560547"/>
      <use xlink:href="#DejaVuSans-73" x="281.347656"/>
      <use xlink:href="#DejaVuSans-69" x="333.447266"/>
      <use xlink:href="#DejaVuSans-6e" x="361.230469"/>
      <use xlink:href="#DejaVuSans-63" x="424.609375"/>
      <use xlink:href="#DejaVuSans-65" x="479.589844"/>
      <use xlink:href="#DejaVuSans-20" x="541.113281"/>
      <use xlink:href="#DejaVuSans-44" x="572.900391"/>
      <use xlink:href="#DejaVuSans-69" x="649.902344"/>
      <use xlink:href="#DejaVuSans-61" x="677.685547"/>
      <use xlink:href="#DejaVuSans-67" x="738.964844"/>
      <use xlink:href="#DejaVuSans-6e" x="802.441406"/>
      <use xlink:href="#DejaVuSans-6f" x="865.820312"/>
      <use xlink:href="#DejaVuSans-73" x="927.001953"/>
      <use xlink:href="#DejaVuSans-69" x="979.101562"/>
      <use xlink:href="#DejaVuSans-73" x="1006.884766"/>
     </g>
    </g>
   </g>
   <g id="matplotlib.axis_2">
    <g id="ytick_1">
     <g id="line2d_10">
      <defs>
       <path id="medce0df37f" d="M 0 0 
L -3.5 0 
" style="stroke: #000000; stroke-width: 0.8"/>
      </defs>
      <g>
       <use xlink:href="#medce0df37f" x="67.240332" y="255.819034" style="stroke: #000000; stroke-width: 0.8"/>
      </g>
     </g>
     <g id="text_11">
      <!-- 0.0 -->
      <g transform="translate(44.337207 259.618253) scale(0.1 -0.1)">
       <defs>
        <path id="DejaVuSans-2e" d="M 684 794 
L 1344 794 
L 1344 0 
L 684 0 
L 684 794 
z
" transform="scale(0.015625)"/>
       </defs>
       <use xlink:href="#DejaVuSans-30"/>
       <use xlink:href="#DejaVuSans-2e" x="63.623047"/>
       <use xlink:href="#DejaVuSans-30" x="95.410156"/>
      </g>
     </g>
    </g>
    <g id="ytick_2">
     <g id="line2d_11">
      <g>
       <use xlink:href="#medce0df37f" x="67.240332" y="211.34267" style="stroke: #000000; stroke-width: 0.8"/>
      </g>
     </g>
     <g id="text_12">
      <!-- 0.2 -->
      <g transform="translate(44.337207 215.141889) scale(0.1 -0.1)">
       <use xlink:href="#DejaVuSans-30"/>
       <use xlink:href="#DejaVuSans-2e" x="63.623047"/>
       <use xlink:href="#DejaVuSans-32" x="95.410156"/>
      </g>
     </g>
    </g>
    <g id="ytick_3">
     <g id="line2d_12">
      <g>
       <use xlink:href="#medce0df37f" x="67.240332" y="166.866307" style="stroke: #000000; stroke-width: 0.8"/>
      </g>
     </g>
     <g id="text_13">
      <!-- 0.4 -->
      <g transform="translate(44.337207 170.665526) scale(0.1 -0.1)">
       <defs>
        <path id="DejaVuSans-34" d="M 2419 4116 
L 825 1625 
L 2419 1625 
L 2419 4116 
z
M 2253 4666 
L 3047 4666 
L 3047 1625 
L 3713 1625 
L 3713 1100 
L 3047 1100 
L 3047 0 
L 2419 0 
L 2419 1100 
L 313 1100 
L 313 1709 
L 2253 4666 
z
" transform="scale(0.015625)"/>
       </defs>
       <use xlink:href="#DejaVuSans-30"/>
       <use xlink:href="#DejaVuSans-2e" x="63.623047"/>
       <use xlink:href="#DejaVuSans-34" x="95.410156"/>
      </g>
     </g>
    </g>
    <g id="ytick_4">
     <g id="line2d_13">
      <g>
       <use xlink:href="#medce0df37f" x="67.240332" y="122.389943" style="stroke: #000000; stroke-width: 0.8"/>
      </g>
     </g>
     <g id="text_14">
      <!-- 0.6 -->
      <g transform="translate(44.337207 126.189162) scale(0.1 -0.1)">
       <defs>
        <path id="DejaVuSans-36" d="M 2113 2584 
Q 1688 2584 1439 2293 
Q 1191 2003 1191 1497 
Q 1191 994 1439 701 
Q 1688 409 2113 409 
Q 2538 409 2786 701 
Q 3034 994 3034 1497 
Q 3034 2003 2786 2293 
Q 2538 2584 2113 2584 
z
M 3366 4563 
L 3366 3988 
Q 3128 4100 2886 4159 
Q 2644 4219 2406 4219 
Q 1781 4219 1451 3797 
Q 1122 3375 1075 2522 
Q 1259 2794 1537 2939 
Q 1816 3084 2150 3084 
Q 2853 3084 3261 2657 
Q 3669 2231 3669 1497 
Q 3669 778 3244 343 
Q 2819 -91 2113 -91 
Q 1303 -91 875 529 
Q 447 1150 447 2328 
Q 447 3434 972 4092 
Q 1497 4750 2381 4750 
Q 2619 4750 2861 4703 
Q 3103 4656 3366 4563 
z
" transform="scale(0.015625)"/>
       </defs>
       <use xlink:href="#DejaVuSans-30"/>
       <use xlink:href="#DejaVuSans-2e" x="63.623047"/>
       <use xlink:href="#DejaVuSans-36" x="95.410156"/>
      </g>
     </g>
    </g>
    <g id="ytick_5">
     <g id="line2d_14">
      <g>
       <use xlink:href="#medce0df37f" x="67.240332" y="77.91358" style="stroke: #000000; stroke-width: 0.8"/>
      </g>
     </g>
     <g id="text_15">
      <!-- 0.8 -->
      <g transform="translate(44.337207 81.712798) scale(0.1 -0.1)">
       <defs>
        <path id="DejaVuSans-38" d="M 2034 2216 
Q 1584 2216 1326 1975 
Q 1069 1734 1069 1313 
Q 1069 891 1326 650 
Q 1584 409 2034 409 
Q 2484 409 2743 651 
Q 3003 894 3003 1313 
Q 3003 1734 2745 1975 
Q 2488 2216 2034 2216 
z
M 1403 2484 
Q 997 2584 770 2862 
Q 544 3141 544 3541 
Q 544 4100 942 4425 
Q 1341 4750 2034 4750 
Q 2731 4750 3128 4425 
Q 3525 4100 3525 3541 
Q 3525 3141 3298 2862 
Q 3072 2584 2669 2484 
Q 3125 2378 3379 2068 
Q 3634 1759 3634 1313 
Q 3634 634 3220 271 
Q 2806 -91 2034 -91 
Q 1263 -91 848 271 
Q 434 634 434 1313 
Q 434 1759 690 2068 
Q 947 2378 1403 2484 
z
M 1172 3481 
Q 1172 3119 1398 2916 
Q 1625 2713 2034 2713 
Q 2441 2713 2670 2916 
Q 2900 3119 2900 3481 
Q 2900 3844 2670 4047 
Q 2441 4250 2034 4250 
Q 1625 4250 1398 4047 
Q 1172 3844 1172 3481 
z
" transform="scale(0.015625)"/>
       </defs>
       <use xlink:href="#DejaVuSans-30"/>
       <use xlink:href="#DejaVuSans-2e" x="63.623047"/>
       <use xlink:href="#DejaVuSans-38" x="95.410156"/>
      </g>
     </g>
    </g>
    <g id="ytick_6">
     <g id="line2d_15">
      <g>
       <use xlink:href="#medce0df37f" x="67.240332" y="33.437216" style="stroke: #000000; stroke-width: 0.8"/>
      </g>
     </g>
     <g id="text_16">
      <!-- 1.0 -->
      <g transform="translate(44.337207 37.236435) scale(0.1 -0.1)">
       <use xlink:href="#DejaVuSans-31"/>
       <use xlink:href="#DejaVuSans-2e" x="63.623047"/>
       <use xlink:href="#DejaVuSans-30" x="95.410156"/>
      </g>
     </g>
    </g>
    <g id="text_17">
     <!-- Surviving Fraction -->
     <g transform="translate(38.257519 189.614844) rotate(-90) scale(0.1 -0.1)">
      <defs>
       <path id="DejaVuSans-53" d="M 3425 4513 
L 3425 3897 
Q 3066 4069 2747 4153 
Q 2428 4238 2131 4238 
Q 1616 4238 1336 4038 
Q 1056 3838 1056 3469 
Q 1056 3159 1242 3001 
Q 1428 2844 1947 2747 
L 2328 2669 
Q 3034 2534 3370 2195 
Q 3706 1856 3706 1288 
Q 3706 609 3251 259 
Q 2797 -91 1919 -91 
Q 1588 -91 1214 -16 
Q 841 59 441 206 
L 441 856 
Q 825 641 1194 531 
Q 1563 422 1919 422 
Q 2459 422 2753 634 
Q 3047 847 3047 1241 
Q 3047 1584 2836 1778 
Q 2625 1972 2144 2069 
L 1759 2144 
Q 1053 2284 737 2584 
Q 422 2884 422 3419 
Q 422 4038 858 4394 
Q 1294 4750 2059 4750 
Q 2388 4750 2728 4690 
Q 3069 4631 3425 4513 
z
" transform="scale(0.015625)"/>
       <path id="DejaVuSans-75" d="M 544 1381 
L 544 3500 
L 1119 3500 
L 1119 1403 
Q 1119 906 1312 657 
Q 1506 409 1894 409 
Q 2359 409 2629 706 
Q 2900 1003 2900 1516 
L 2900 3500 
L 3475 3500 
L 3475 0 
L 2900 0 
L 2900 538 
Q 2691 219 2414 64 
Q 2138 -91 1772 -91 
Q 1169 -91 856 284 
Q 544 659 544 1381 
z
M 1991 3584 
L 1991 3584 
z
" transform="scale(0.015625)"/>
       <path id="DejaVuSans-72" d="M 2631 2963 
Q 2534 3019 2420 3045 
Q 2306 3072 2169 3072 
Q 1681 3072 1420 2755 
Q 1159 2438 1159 1844 
L 1159 0 
L 581 0 
L 581 3500 
L 1159 3500 
L 1159 2956 
Q 1341 3275 1631 3429 
Q 1922 3584 2338 3584 
Q 2397 3584 2469 3576 
Q 2541 3569 2628 3553 
L 2631 2963 
z
" transform="scale(0.015625)"/>
       <path id="DejaVuSans-76" d="M 191 3500 
L 800 3500 
L 1894 563 
L 2988 3500 
L 3597 3500 
L 2284 0 
L 1503 0 
L 191 3500 
z
" transform="scale(0.015625)"/>
       <path id="DejaVuSans-46" d="M 628 4666 
L 3309 4666 
L 3309 4134 
L 1259 4134 
L 1259 2759 
L 3109 2759 
L 3109 2228 
L 1259 2228 
L 1259 0 
L 628 0 
L 628 4666 
z
" transform="scale(0.015625)"/>
       <path id="DejaVuSans-74" d="M 1172 4494 
L 1172 3500 
L 2356 3500 
L 2356 3053 
L 1172 3053 
L 1172 1153 
Q 1172 725 1289 603 
Q 1406 481 1766 481 
L 2356 481 
L 2356 0 
L 1766 0 
Q 1100 0 847 248 
Q 594 497 594 1153 
L 594 3053 
L 172 3053 
L 172 3500 
L 594 3500 
L 594 4494 
L 1172 4494 
z
" transform="scale(0.015625)"/>
      </defs>
      <use xlink:href="#DejaVuSans-53"/>
      <use xlink:href="#DejaVuSans-75" x="63.476562"/>
      <use xlink:href="#DejaVuSans-72" x="126.855469"/>
      <use xlink:href="#DejaVuSans-76" x="167.96875"/>
      <use xlink:href="#DejaVuSans-69" x="227.148438"/>
      <use xlink:href="#DejaVuSans-76" x="254.931641"/>
      <use xlink:href="#DejaVuSans-69" x="314.111328"/>
      <use xlink:href="#DejaVuSans-6e" x="341.894531"/>
      <use xlink:href="#DejaVuSans-67" x="405.273438"/>
      <use xlink:href="#DejaVuSans-20" x="468.75"/>
      <use xlink:href="#DejaVuSans-46" x="500.537109"/>
      <use xlink:href="#DejaVuSans-72" x="550.806641"/>
      <use xlink:href="#DejaVuSans-61" x="591.919922"/>
      <use xlink:href="#DejaVuSans-63" x="653.199219"/>
      <use xlink:href="#DejaVuSans-74" x="708.179688"/>
      <use xlink:href="#DejaVuSans-69" x="747.388672"/>
      <use xlink:href="#DejaVuSans-6f" x="775.171875"/>
      <use xlink:href="#DejaVuSans-6e" x="836.353516"/>
     </g>
    </g>
   </g>
   <g id="line2d_16">
    <path d="M 87.531241 33.437216 
L 89.354688 33.437216 
L 89.354688 35.275082 
L 94.217212 35.275082 
L 94.217212 37.144099 
L 95.027633 37.144099 
L 95.027633 39.013115 
L 100.497973 39.013115 
L 100.497973 40.898384 
L 103.739656 40.898384 
L 103.739656 42.800337 
L 104.144866 42.800337 
L 104.144866 44.702289 
L 109.412601 44.702289 
L 109.412601 46.604242 
L 114.882941 46.604242 
L 114.882941 48.523644 
L 126.634041 48.523644 
L 126.634041 50.460984 
L 131.496566 50.460984 
L 131.496566 52.398324 
L 131.901776 52.398324 
L 131.901776 54.354292 
L 150.744058 54.354292 
L 150.744058 56.431249 
L 167.560288 56.431249 
L 167.560288 58.955145 
L 175.259285 58.955145 
L 175.259285 61.65191 
L 179.919204 61.65191 
L 179.919204 64.639097 
L 285.2739 64.639097 
L 285.2739 75.884975 
L 287.299951 75.884975 
L 287.299951 87.880579 
L 373.407154 87.880579 
L 373.407154 255.819034 
L 373.407154 255.819034 
" clip-path="url(#p8a25f96248)" style="fill: none; stroke: #ff0000; stroke-width: 1.5; stroke-linecap: square"/>
   </g>
   <g id="line2d_17">
    <path d="M 87.733846 33.437216 
L 95.432843 33.437216 
L 95.432843 34.081801 
L 98.877131 34.081801 
L 98.877131 34.730155 
L 107.791759 34.730155 
L 107.791759 35.386205 
L 112.046468 35.386205 
L 112.046468 36.044214 
L 116.503782 36.044214 
L 116.503782 36.704198 
L 130.686145 36.704198 
L 130.686145 37.37633 
L 134.535643 37.37633 
L 134.535643 38.054723 
L 135.548669 38.054723 
L 135.548669 38.739517 
L 138.182537 38.739517 
L 138.182537 39.428658 
L 144.868508 39.428658 
L 144.868508 40.142818 
L 147.29977 40.142818 
L 147.29977 40.866563 
L 150.744058 40.866563 
L 150.744058 41.605232 
L 151.757084 41.605232 
L 151.757084 42.346456 
L 153.783136 42.346456 
L 153.783136 43.095482 
L 156.214398 43.095482 
L 156.214398 43.860675 
L 160.469107 43.860675 
L 160.469107 44.660518 
L 160.671712 44.660518 
L 160.671712 45.472666 
L 161.279528 45.472666 
L 161.279528 46.304075 
L 170.194156 46.304075 
L 170.194156 47.297037 
L 174.854075 47.297037 
L 174.854075 48.350178 
L 180.93223 48.350178 
L 180.93223 49.509222 
L 206.257878 49.509222 
L 206.257878 50.74461 
L 209.702166 50.74461 
L 209.702166 52.018364 
L 212.336034 52.018364 
L 212.336034 53.292118 
L 216.388137 53.292118 
L 216.388137 54.660543 
L 217.401163 54.660543 
L 217.401163 56.038341 
L 217.603768 56.038341 
L 217.603768 57.416139 
L 229.962685 57.416139 
L 229.962685 59.526808 
L 237.661682 59.526808 
L 237.661682 62.593874 
L 261.366488 62.593874 
L 261.366488 68.632161 
L 269.470695 68.632161 
L 269.470695 74.871723 
L 343.826798 74.871723 
L 343.826798 111.061185 
L 493.349423 111.061185 
L 493.349423 111.061185 
" clip-path="url(#p8a25f96248)" style="fill: none; stroke: #0000ff; stroke-width: 1.5; stroke-linecap: square"/>
   </g>
   <g id="patch_3">
    <path d="M 67.240332 266.938125 
L 67.240332 22.318125 
" style="fill: none; stroke: #000000; stroke-width: 0.8; stroke-linejoin: miter; stroke-linecap: square"/>
   </g>
   <g id="patch_4">
    <path d="M 513.640332 266.938125 
L 513.640332 22.318125 
" style="fill: none; stroke: #000000; stroke-width: 0.8; stroke-linejoin: miter; stroke-linecap: square"/>
   </g>
   <g id="patch_5">
    <path d="M 67.240332 266.938125 
L 513.640332 266.938125 
" style="fill: none; stroke: #000000; stroke-width: 0.8; stroke-linejoin: miter; stroke-linecap: square"/>
   </g>
   <g id="patch_6">
    <path d="M 67.240332 22.318125 
L 513.640332 22.318125 
" style="fill: none; stroke: #000000; stroke-width: 0.8; stroke-linejoin: miter; stroke-linecap: square"/>
   </g>
   <g id="legend_1">
    <g id="patch_7">
     <path d="M 412.555957 59.674375 
L 506.640332 59.674375 
Q 508.640332 59.674375 508.640332 57.674375 
L 508.640332 29.318125 
Q 508.640332 27.318125 506.640332 27.318125 
L 412.555957 27.318125 
Q 410.555957 27.318125 410.555957 29.318125 
L 410.555957 57.674375 
Q 410.555957 59.674375 412.555957 59.674375 
z
" style="fill: #ffffff; opacity: 0.8; stroke: #cccccc; stroke-linejoin: miter"/>
    </g>
    <g id="line2d_18">
     <path d="M 414.555957 35.416562 
L 424.555957 35.416562 
L 424.555957 35.416562 
L 434.555957 35.416562 
L 434.555957 35.416562 
" style="fill: none; stroke: #ff0000; stroke-width: 1.5; stroke-linecap: square"/>
    </g>
    <g id="text_18">
     <!-- Top 25% -->
     <g transform="translate(442.555957 38.916562) scale(0.1 -0.1)">
      <defs>
       <path id="DejaVuSans-54" d="M -19 4666 
L 3928 4666 
L 3928 4134 
L 2272 4134 
L 2272 0 
L 1638 0 
L 1638 4134 
L -19 4134 
L -19 4666 
z
" transform="scale(0.015625)"/>
       <path id="DejaVuSans-70" d="M 1159 525 
L 1159 -1331 
L 581 -1331 
L 581 3500 
L 1159 3500 
L 1159 2969 
Q 1341 3281 1617 3432 
Q 1894 3584 2278 3584 
Q 2916 3584 3314 3078 
Q 3713 2572 3713 1747 
Q 3713 922 3314 415 
Q 2916 -91 2278 -91 
Q 1894 -91 1617 61 
Q 1341 213 1159 525 
z
M 3116 1747 
Q 3116 2381 2855 2742 
Q 2594 3103 2138 3103 
Q 1681 3103 1420 2742 
Q 1159 2381 1159 1747 
Q 1159 1113 1420 752 
Q 1681 391 2138 391 
Q 2594 391 2855 752 
Q 3116 1113 3116 1747 
z
" transform="scale(0.015625)"/>
       <path id="DejaVuSans-25" d="M 4653 2053 
Q 4381 2053 4226 1822 
Q 4072 1591 4072 1178 
Q 4072 772 4226 539 
Q 4381 306 4653 306 
Q 4919 306 5073 539 
Q 5228 772 5228 1178 
Q 5228 1588 5073 1820 
Q 4919 2053 4653 2053 
z
M 4653 2450 
Q 5147 2450 5437 2106 
Q 5728 1763 5728 1178 
Q 5728 594 5436 251 
Q 5144 -91 4653 -91 
Q 4153 -91 3862 251 
Q 3572 594 3572 1178 
Q 3572 1766 3864 2108 
Q 4156 2450 4653 2450 
z
M 1428 4353 
Q 1159 4353 1004 4120 
Q 850 3888 850 3481 
Q 850 3069 1003 2837 
Q 1156 2606 1428 2606 
Q 1700 2606 1854 2837 
Q 2009 3069 2009 3481 
Q 2009 3884 1853 4118 
Q 1697 4353 1428 4353 
z
M 4250 4750 
L 4750 4750 
L 1831 -91 
L 1331 -91 
L 4250 4750 
z
M 1428 4750 
Q 1922 4750 2215 4408 
Q 2509 4066 2509 3481 
Q 2509 2891 2217 2550 
Q 1925 2209 1428 2209 
Q 931 2209 642 2551 
Q 353 2894 353 3481 
Q 353 4063 643 4406 
Q 934 4750 1428 4750 
z
" transform="scale(0.015625)"/>
      </defs>
      <use xlink:href="#DejaVuSans-54"/>
      <use xlink:href="#DejaVuSans-6f" x="44.083984"/>
      <use xlink:href="#DejaVuSans-70" x="105.265625"/>
      <use xlink:href="#DejaVuSans-20" x="168.742188"/>
      <use xlink:href="#DejaVuSans-32" x="200.529297"/>
      <use xlink:href="#DejaVuSans-35" x="264.152344"/>
      <use xlink:href="#DejaVuSans-25" x="327.775391"/>
     </g>
    </g>
    <g id="line2d_19">
     <path d="M 414.555957 50.094687 
L 424.555957 50.094687 
L 424.555957 50.094687 
L 434.555957 50.094687 
L 434.555957 50.094687 
" style="fill: none; stroke: #0000ff; stroke-width: 1.5; stroke-linecap: square"/>
    </g>
    <g id="text_19">
     <!-- Bottom 75% -->
     <g transform="translate(442.555957 53.594687) scale(0.1 -0.1)">
      <defs>
       <path id="DejaVuSans-42" d="M 1259 2228 
L 1259 519 
L 2272 519 
Q 2781 519 3026 730 
Q 3272 941 3272 1375 
Q 3272 1813 3026 2020 
Q 2781 2228 2272 2228 
L 1259 2228 
z
M 1259 4147 
L 1259 2741 
L 2194 2741 
Q 2656 2741 2882 2914 
Q 3109 3088 3109 3444 
Q 3109 3797 2882 3972 
Q 2656 4147 2194 4147 
L 1259 4147 
z
M 628 4666 
L 2241 4666 
Q 2963 4666 3353 4366 
Q 3744 4066 3744 3513 
Q 3744 3084 3544 2831 
Q 3344 2578 2956 2516 
Q 3422 2416 3680 2098 
Q 3938 1781 3938 1306 
Q 3938 681 3513 340 
Q 3088 0 2303 0 
L 628 0 
L 628 4666 
z
" transform="scale(0.015625)"/>
       <path id="DejaVuSans-6d" d="M 3328 2828 
Q 3544 3216 3844 3400 
Q 4144 3584 4550 3584 
Q 5097 3584 5394 3201 
Q 5691 2819 5691 2113 
L 5691 0 
L 5113 0 
L 5113 2094 
Q 5113 2597 4934 2840 
Q 4756 3084 4391 3084 
Q 3944 3084 3684 2787 
Q 3425 2491 3425 1978 
L 3425 0 
L 2847 0 
L 2847 2094 
Q 2847 2600 2669 2842 
Q 2491 3084 2119 3084 
Q 1678 3084 1418 2786 
Q 1159 2488 1159 1978 
L 1159 0 
L 581 0 
L 581 3500 
L 1159 3500 
L 1159 2956 
Q 1356 3278 1631 3431 
Q 1906 3584 2284 3584 
Q 2666 3584 2933 3390 
Q 3200 3197 3328 2828 
z
" transform="scale(0.015625)"/>
      </defs>
      <use xlink:href="#DejaVuSans-42"/>
      <use xlink:href="#DejaVuSans-6f" x="68.603516"/>
      <use xlink:href="#DejaVuSans-74" x="129.785156"/>
      <use xlink:href="#DejaVuSans-74" x="168.994141"/>
      <use xlink:href="#DejaVuSans-6f" x="208.203125"/>
      <use xlink:href="#DejaVuSans-6d" x="269.384766"/>
      <use xlink:href="#DejaVuSans-20" x="366.796875"/>
      <use xlink:href="#DejaVuSans-37" x="398.583984"/>
      <use xlink:href="#DejaVuSans-35" x="462.207031"/>
      <use xlink:href="#DejaVuSans-25" x="525.830078"/>
     </g>
    </g>
   </g>
  </g>
  <g id="axes_2">
   <g id="matplotlib.axis_3">
    <g id="xtick_10">
     <g id="text_20">
      <!-- Top 25% -->
      <g transform="translate(47.075 324.736562) scale(0.1 -0.1)">
       <use xlink:href="#DejaVuSans-54"/>
       <use xlink:href="#DejaVuSans-6f" x="44.083984"/>
       <use xlink:href="#DejaVuSans-70" x="105.265625"/>
       <use xlink:href="#DejaVuSans-20" x="168.742188"/>
       <use xlink:href="#DejaVuSans-32" x="200.529297"/>
       <use xlink:href="#DejaVuSans-35" x="264.152344"/>
       <use xlink:href="#DejaVuSans-25" x="327.775391"/>
      </g>
      <!--    At risk   120 -->
      <g transform="translate(19.545313 335.934375) scale(0.1 -0.1)">
       <defs>
        <path id="DejaVuSans-41" d="M 2188 4044 
L 1331 1722 
L 3047 1722 
L 2188 4044 
z
M 1831 4666 
L 2547 4666 
L 4325 0 
L 3669 0 
L 3244 1197 
L 1141 1197 
L 716 0 
L 50 0 
L 1831 4666 
z
" transform="scale(0.015625)"/>
        <path id="DejaVuSans-6b" d="M 581 4863 
L 1159 4863 
L 1159 1991 
L 2875 3500 
L 3609 3500 
L 1753 1863 
L 3688 0 
L 2938 0 
L 1159 1709 
L 1159 0 
L 581 0 
L 581 4863 
z
" transform="scale(0.015625)"/>
       </defs>
       <use xlink:href="#DejaVuSans-20"/>
       <use xlink:href="#DejaVuSans-20" x="31.787109"/>
       <use xlink:href="#DejaVuSans-20" x="63.574219"/>
       <use xlink:href="#DejaVuSans-41" x="95.361328"/>
       <use xlink:href="#DejaVuSans-74" x="162.019531"/>
       <use xlink:href="#DejaVuSans-20" x="201.228516"/>
       <use xlink:href="#DejaVuSans-72" x="233.015625"/>
       <use xlink:href="#DejaVuSans-69" x="274.128906"/>
       <use xlink:href="#DejaVuSans-73" x="301.912109"/>
       <use xlink:href="#DejaVuSans-6b" x="354.011719"/>
       <use xlink:href="#DejaVuSans-20" x="411.921875"/>
       <use xlink:href="#DejaVuSans-20" x="443.708984"/>
       <use xlink:href="#DejaVuSans-20" x="475.496094"/>
       <use xlink:href="#DejaVuSans-31" x="507.283203"/>
       <use xlink:href="#DejaVuSans-32" x="570.90625"/>
       <use xlink:href="#DejaVuSans-30" x="634.529297"/>
      </g>
      <!--   Censored       1 -->
      <g transform="translate(7.2 347.132187) scale(0.1 -0.1)">
       <defs>
        <path id="DejaVuSans-43" d="M 4122 4306 
L 4122 3641 
Q 3803 3938 3442 4084 
Q 3081 4231 2675 4231 
Q 1875 4231 1450 3742 
Q 1025 3253 1025 2328 
Q 1025 1406 1450 917 
Q 1875 428 2675 428 
Q 3081 428 3442 575 
Q 3803 722 4122 1019 
L 4122 359 
Q 3791 134 3420 21 
Q 3050 -91 2638 -91 
Q 1578 -91 968 557 
Q 359 1206 359 2328 
Q 359 3453 968 4101 
Q 1578 4750 2638 4750 
Q 3056 4750 3426 4639 
Q 3797 4528 4122 4306 
z
" transform="scale(0.015625)"/>
        <path id="DejaVuSans-64" d="M 2906 2969 
L 2906 4863 
L 3481 4863 
L 3481 0 
L 2906 0 
L 2906 525 
Q 2725 213 2448 61 
Q 2172 -91 1784 -91 
Q 1150 -91 751 415 
Q 353 922 353 1747 
Q 353 2572 751 3078 
Q 1150 3584 1784 3584 
Q 2172 3584 2448 3432 
Q 2725 3281 2906 2969 
z
M 947 1747 
Q 947 1113 1208 752 
Q 1469 391 1925 391 
Q 2381 391 2643 752 
Q 2906 1113 2906 1747 
Q 2906 2381 2643 2742 
Q 2381 3103 1925 3103 
Q 1469 3103 1208 2742 
Q 947 2381 947 1747 
z
" transform="scale(0.015625)"/>
       </defs>
       <use xlink:href="#DejaVuSans-20"/>
       <use xlink:href="#DejaVuSans-20" x="31.787109"/>
       <use xlink:href="#DejaVuSans-43" x="63.574219"/>
       <use xlink:href="#DejaVuSans-65" x="133.398438"/>
       <use xlink:href="#DejaVuSans-6e" x="194.921875"/>
       <use xlink:href="#DejaVuSans-73" x="258.300781"/>
       <use xlink:href="#DejaVuSans-6f" x="310.400391"/>
       <use xlink:href="#DejaVuSans-72" x="371.582031"/>
       <use xlink:href="#DejaVuSans-65" x="410.445312"/>
       <use xlink:href="#DejaVuSans-64" x="471.96875"/>
       <use xlink:href="#DejaVuSans-20" x="535.445312"/>
       <use xlink:href="#DejaVuSans-20" x="567.232422"/>
       <use xlink:href="#DejaVuSans-20" x="599.019531"/>
       <use xlink:href="#DejaVuSans-20" x="630.806641"/>
       <use xlink:href="#DejaVuSans-20" x="662.59375"/>
       <use xlink:href="#DejaVuSans-20" x="694.380859"/>
       <use xlink:href="#DejaVuSans-20" x="726.167969"/>
       <use xlink:href="#DejaVuSans-31" x="757.955078"/>
      </g>
      <!--     Events       1 -->
      <g transform="translate(14.175 358.33) scale(0.1 -0.1)">
       <defs>
        <path id="DejaVuSans-45" d="M 628 4666 
L 3578 4666 
L 3578 4134 
L 1259 4134 
L 1259 2753 
L 3481 2753 
L 3481 2222 
L 1259 2222 
L 1259 531 
L 3634 531 
L 3634 0 
L 628 0 
L 628 4666 
z
" transform="scale(0.015625)"/>
       </defs>
       <use xlink:href="#DejaVuSans-20"/>
       <use xlink:href="#DejaVuSans-20" x="31.787109"/>
       <use xlink:href="#DejaVuSans-20" x="63.574219"/>
       <use xlink:href="#DejaVuSans-20" x="95.361328"/>
       <use xlink:href="#DejaVuSans-45" x="127.148438"/>
       <use xlink:href="#DejaVuSans-76" x="190.332031"/>
       <use xlink:href="#DejaVuSans-65" x="249.511719"/>
       <use xlink:href="#DejaVuSans-6e" x="311.035156"/>
       <use xlink:href="#DejaVuSans-74" x="374.414062"/>
       <use xlink:href="#DejaVuSans-73" x="413.623047"/>
       <use xlink:href="#DejaVuSans-20" x="465.722656"/>
       <use xlink:href="#DejaVuSans-20" x="497.509766"/>
       <use xlink:href="#DejaVuSans-20" x="529.296875"/>
       <use xlink:href="#DejaVuSans-20" x="561.083984"/>
       <use xlink:href="#DejaVuSans-20" x="592.871094"/>
       <use xlink:href="#DejaVuSans-20" x="624.658203"/>
       <use xlink:href="#DejaVuSans-20" x="656.445312"/>
       <use xlink:href="#DejaVuSans-31" x="688.232422"/>
      </g>
      <!--  -->
      <g transform="translate(89.354688 369.527812) scale(0.1 -0.1)"/>
      <!-- Bottom 75% -->
      <g transform="translate(27.270313 380.725625) scale(0.1 -0.1)">
       <use xlink:href="#DejaVuSans-42"/>
       <use xlink:href="#DejaVuSans-6f" x="68.603516"/>
       <use xlink:href="#DejaVuSans-74" x="129.785156"/>
       <use xlink:href="#DejaVuSans-74" x="168.994141"/>
       <use xlink:href="#DejaVuSans-6f" x="208.203125"/>
       <use xlink:href="#DejaVuSans-6d" x="269.384766"/>
       <use xlink:href="#DejaVuSans-20" x="366.796875"/>
       <use xlink:href="#DejaVuSans-37" x="398.583984"/>
       <use xlink:href="#DejaVuSans-35" x="462.207031"/>
       <use xlink:href="#DejaVuSans-25" x="525.830078"/>
      </g>
      <!--    At risk   353 -->
      <g transform="translate(19.545313 391.923437) scale(0.1 -0.1)">
       <defs>
        <path id="DejaVuSans-33" d="M 2597 2516 
Q 3050 2419 3304 2112 
Q 3559 1806 3559 1356 
Q 3559 666 3084 287 
Q 2609 -91 1734 -91 
Q 1441 -91 1130 -33 
Q 819 25 488 141 
L 488 750 
Q 750 597 1062 519 
Q 1375 441 1716 441 
Q 2309 441 2620 675 
Q 2931 909 2931 1356 
Q 2931 1769 2642 2001 
Q 2353 2234 1838 2234 
L 1294 2234 
L 1294 2753 
L 1863 2753 
Q 2328 2753 2575 2939 
Q 2822 3125 2822 3475 
Q 2822 3834 2567 4026 
Q 2313 4219 1838 4219 
Q 1578 4219 1281 4162 
Q 984 4106 628 3988 
L 628 4550 
Q 988 4650 1302 4700 
Q 1616 4750 1894 4750 
Q 2613 4750 3031 4423 
Q 3450 4097 3450 3541 
Q 3450 3153 3228 2886 
Q 3006 2619 2597 2516 
z
" transform="scale(0.015625)"/>
       </defs>
       <use xlink:href="#DejaVuSans-20"/>
       <use xlink:href="#DejaVuSans-20" x="31.787109"/>
       <use xlink:href="#DejaVuSans-20" x="63.574219"/>
       <use xlink:href="#DejaVuSans-41" x="95.361328"/>
       <use xlink:href="#DejaVuSans-74" x="162.019531"/>
       <use xlink:href="#DejaVuSans-20" x="201.228516"/>
       <use xlink:href="#DejaVuSans-72" x="233.015625"/>
       <use xlink:href="#DejaVuSans-69" x="274.128906"/>
       <use xlink:href="#DejaVuSans-73" x="301.912109"/>
       <use xlink:href="#DejaVuSans-6b" x="354.011719"/>
       <use xlink:href="#DejaVuSans-20" x="411.921875"/>
       <use xlink:href="#DejaVuSans-20" x="443.708984"/>
       <use xlink:href="#DejaVuSans-20" x="475.496094"/>
       <use xlink:href="#DejaVuSans-33" x="507.283203"/>
       <use xlink:href="#DejaVuSans-35" x="570.90625"/>
       <use xlink:href="#DejaVuSans-33" x="634.529297"/>
      </g>
      <!--   Censored       5 -->
      <g transform="translate(7.2 403.12125) scale(0.1 -0.1)">
       <use xlink:href="#DejaVuSans-20"/>
       <use xlink:href="#DejaVuSans-20" x="31.787109"/>
       <use xlink:href="#DejaVuSans-43" x="63.574219"/>
       <use xlink:href="#DejaVuSans-65" x="133.398438"/>
       <use xlink:href="#DejaVuSans-6e" x="194.921875"/>
       <use xlink:href="#DejaVuSans-73" x="258.300781"/>
       <use xlink:href="#DejaVuSans-6f" x="310.400391"/>
       <use xlink:href="#DejaVuSans-72" x="371.582031"/>
       <use xlink:href="#DejaVuSans-65" x="410.445312"/>
       <use xlink:href="#DejaVuSans-64" x="471.96875"/>
       <use xlink:href="#DejaVuSans-20" x="535.445312"/>
       <use xlink:href="#DejaVuSans-20" x="567.232422"/>
       <use xlink:href="#DejaVuSans-20" x="599.019531"/>
       <use xlink:href="#DejaVuSans-20" x="630.806641"/>
       <use xlink:href="#DejaVuSans-20" x="662.59375"/>
       <use xlink:href="#DejaVuSans-20" x="694.380859"/>
       <use xlink:href="#DejaVuSans-20" x="726.167969"/>
       <use xlink:href="#DejaVuSans-35" x="757.955078"/>
      </g>
      <!--     Events       0 -->
      <g transform="translate(14.175 414.319062) scale(0.1 -0.1)">
       <use xlink:href="#DejaVuSans-20"/>
       <use xlink:href="#DejaVuSans-20" x="31.787109"/>
       <use xlink:href="#DejaVuSans-20" x="63.574219"/>
       <use xlink:href="#DejaVuSans-20" x="95.361328"/>
       <use xlink:href="#DejaVuSans-45" x="127.148438"/>
       <use xlink:href="#DejaVuSans-76" x="190.332031"/>
       <use xlink:href="#DejaVuSans-65" x="249.511719"/>
       <use xlink:href="#DejaVuSans-6e" x="311.035156"/>
       <use xlink:href="#DejaVuSans-74" x="374.414062"/>
       <use xlink:href="#DejaVuSans-73" x="413.623047"/>
       <use xlink:href="#DejaVuSans-20" x="465.722656"/>
       <use xlink:href="#DejaVuSans-20" x="497.509766"/>
       <use xlink:href="#DejaVuSans-20" x="529.296875"/>
       <use xlink:href="#DejaVuSans-20" x="561.083984"/>
       <use xlink:href="#DejaVuSans-20" x="592.871094"/>
       <use xlink:href="#DejaVuSans-20" x="624.658203"/>
       <use xlink:href="#DejaVuSans-20" x="656.445312"/>
       <use xlink:href="#DejaVuSans-30" x="688.232422"/>
      </g>
      <!--  -->
      <g transform="translate(89.354688 425.516875) scale(0.1 -0.1)"/>
     </g>
    </g>
    <g id="xtick_11">
     <g id="text_21">
      <!--  -->
      <g transform="translate(140.005983 324.736562) scale(0.1 -0.1)"/>
      <!-- 103 -->
      <g transform="translate(120.918483 335.934375) scale(0.1 -0.1)">
       <use xlink:href="#DejaVuSans-31"/>
       <use xlink:href="#DejaVuSans-30" x="63.623047"/>
       <use xlink:href="#DejaVuSans-33" x="127.246094"/>
      </g>
      <!-- 8 -->
      <g transform="translate(133.643483 347.132187) scale(0.1 -0.1)">
       <use xlink:href="#DejaVuSans-38"/>
      </g>
      <!-- 11 -->
      <g transform="translate(127.280983 358.33) scale(0.1 -0.1)">
       <use xlink:href="#DejaVuSans-31"/>
       <use xlink:href="#DejaVuSans-31" x="63.623047"/>
      </g>
      <!--  -->
      <g transform="translate(140.005983 369.527812) scale(0.1 -0.1)"/>
      <!--  -->
      <g transform="translate(140.005983 380.725625) scale(0.1 -0.1)"/>
      <!-- 309 -->
      <g transform="translate(120.918483 391.923437) scale(0.1 -0.1)">
       <defs>
        <path id="DejaVuSans-39" d="M 703 97 
L 703 672 
Q 941 559 1184 500 
Q 1428 441 1663 441 
Q 2288 441 2617 861 
Q 2947 1281 2994 2138 
Q 2813 1869 2534 1725 
Q 2256 1581 1919 1581 
Q 1219 1581 811 2004 
Q 403 2428 403 3163 
Q 403 3881 828 4315 
Q 1253 4750 1959 4750 
Q 2769 4750 3195 4129 
Q 3622 3509 3622 2328 
Q 3622 1225 3098 567 
Q 2575 -91 1691 -91 
Q 1453 -91 1209 -44 
Q 966 3 703 97 
z
M 1959 2075 
Q 2384 2075 2632 2365 
Q 2881 2656 2881 3163 
Q 2881 3666 2632 3958 
Q 2384 4250 1959 4250 
Q 1534 4250 1286 3958 
Q 1038 3666 1038 3163 
Q 1038 2656 1286 2365 
Q 1534 2075 1959 2075 
z
" transform="scale(0.015625)"/>
       </defs>
       <use xlink:href="#DejaVuSans-33"/>
       <use xlink:href="#DejaVuSans-30" x="63.623047"/>
       <use xlink:href="#DejaVuSans-39" x="127.246094"/>
      </g>
      <!-- 40 -->
      <g transform="translate(127.280983 403.12125) scale(0.1 -0.1)">
       <use xlink:href="#DejaVuSans-34"/>
       <use xlink:href="#DejaVuSans-30" x="63.623047"/>
      </g>
      <!-- 9 -->
      <g transform="translate(133.643483 414.319062) scale(0.1 -0.1)">
       <use xlink:href="#DejaVuSans-39"/>
      </g>
     </g>
    </g>
    <g id="xtick_12">
     <g id="text_22">
      <!--  -->
      <g transform="translate(190.657279 324.736562) scale(0.1 -0.1)"/>
      <!-- 61 -->
      <g transform="translate(177.932279 335.934375) scale(0.1 -0.1)">
       <use xlink:href="#DejaVuSans-36"/>
       <use xlink:href="#DejaVuSans-31" x="63.623047"/>
      </g>
      <!-- 46 -->
      <g transform="translate(177.932279 347.132187) scale(0.1 -0.1)">
       <use xlink:href="#DejaVuSans-34"/>
       <use xlink:href="#DejaVuSans-36" x="63.623047"/>
      </g>
      <!-- 15 -->
      <g transform="translate(177.932279 358.33) scale(0.1 -0.1)">
       <use xlink:href="#DejaVuSans-31"/>
       <use xlink:href="#DejaVuSans-35" x="63.623047"/>
      </g>
      <!--  -->
      <g transform="translate(190.657279 369.527812) scale(0.1 -0.1)"/>
      <!--  -->
      <g transform="translate(190.657279 380.725625) scale(0.1 -0.1)"/>
      <!-- 172 -->
      <g transform="translate(171.569779 391.923437) scale(0.1 -0.1)">
       <use xlink:href="#DejaVuSans-31"/>
       <use xlink:href="#DejaVuSans-37" x="63.623047"/>
       <use xlink:href="#DejaVuSans-32" x="127.246094"/>
      </g>
      <!-- 165 -->
      <g transform="translate(171.569779 403.12125) scale(0.1 -0.1)">
       <use xlink:href="#DejaVuSans-31"/>
       <use xlink:href="#DejaVuSans-36" x="63.623047"/>
       <use xlink:href="#DejaVuSans-35" x="127.246094"/>
      </g>
      <!-- 21 -->
      <g transform="translate(177.932279 414.319062) scale(0.1 -0.1)">
       <use xlink:href="#DejaVuSans-32"/>
       <use xlink:href="#DejaVuSans-31" x="63.623047"/>
      </g>
     </g>
    </g>
    <g id="xtick_13">
     <g id="text_23">
      <!--  -->
      <g transform="translate(241.308575 324.736562) scale(0.1 -0.1)"/>
      <!-- 27 -->
      <g transform="translate(228.583575 335.934375) scale(0.1 -0.1)">
       <use xlink:href="#DejaVuSans-32"/>
       <use xlink:href="#DejaVuSans-37" x="63.623047"/>
      </g>
      <!-- 80 -->
      <g transform="translate(228.583575 347.132187) scale(0.1 -0.1)">
       <use xlink:href="#DejaVuSans-38"/>
       <use xlink:href="#DejaVuSans-30" x="63.623047"/>
      </g>
      <!-- 15 -->
      <g transform="translate(228.583575 358.33) scale(0.1 -0.1)">
       <use xlink:href="#DejaVuSans-31"/>
       <use xlink:href="#DejaVuSans-35" x="63.623047"/>
      </g>
      <!--  -->
      <g transform="translate(241.308575 369.527812) scale(0.1 -0.1)"/>
      <!--  -->
      <g transform="translate(241.308575 380.725625) scale(0.1 -0.1)"/>
      <!-- 55 -->
      <g transform="translate(228.583575 391.923437) scale(0.1 -0.1)">
       <use xlink:href="#DejaVuSans-35"/>
       <use xlink:href="#DejaVuSans-35" x="63.623047"/>
      </g>
      <!-- 274 -->
      <g transform="translate(222.221075 403.12125) scale(0.1 -0.1)">
       <use xlink:href="#DejaVuSans-32"/>
       <use xlink:href="#DejaVuSans-37" x="63.623047"/>
       <use xlink:href="#DejaVuSans-34" x="127.246094"/>
      </g>
      <!-- 29 -->
      <g transform="translate(228.583575 414.319062) scale(0.1 -0.1)">
       <use xlink:href="#DejaVuSans-32"/>
       <use xlink:href="#DejaVuSans-39" x="63.623047"/>
      </g>
     </g>
    </g>
    <g id="xtick_14">
     <g id="text_24">
      <!--  -->
      <g transform="translate(291.959871 324.736562) scale(0.1 -0.1)"/>
      <!-- 14 -->
      <g transform="translate(279.234871 335.934375) scale(0.1 -0.1)">
       <use xlink:href="#DejaVuSans-31"/>
       <use xlink:href="#DejaVuSans-34" x="63.623047"/>
      </g>
      <!-- 91 -->
      <g transform="translate(279.234871 347.132187) scale(0.1 -0.1)">
       <use xlink:href="#DejaVuSans-39"/>
       <use xlink:href="#DejaVuSans-31" x="63.623047"/>
      </g>
      <!-- 17 -->
      <g transform="translate(279.234871 358.33) scale(0.1 -0.1)">
       <use xlink:href="#DejaVuSans-31"/>
       <use xlink:href="#DejaVuSans-37" x="63.623047"/>
      </g>
      <!--  -->
      <g transform="translate(291.959871 369.527812) scale(0.1 -0.1)"/>
      <!--  -->
      <g transform="translate(291.959871 380.725625) scale(0.1 -0.1)"/>
      <!-- 26 -->
      <g transform="translate(279.234871 391.923437) scale(0.1 -0.1)">
       <use xlink:href="#DejaVuSans-32"/>
       <use xlink:href="#DejaVuSans-36" x="63.623047"/>
      </g>
      <!-- 301 -->
      <g transform="translate(272.872371 403.12125) scale(0.1 -0.1)">
       <use xlink:href="#DejaVuSans-33"/>
       <use xlink:href="#DejaVuSans-30" x="63.623047"/>
       <use xlink:href="#DejaVuSans-31" x="127.246094"/>
      </g>
      <!-- 31 -->
      <g transform="translate(279.234871 414.319062) scale(0.1 -0.1)">
       <use xlink:href="#DejaVuSans-33"/>
       <use xlink:href="#DejaVuSans-31" x="63.623047"/>
      </g>
     </g>
    </g>
    <g id="xtick_15">
     <g id="text_25">
      <!--  -->
      <g transform="translate(342.611166 324.736562) scale(0.1 -0.1)"/>
      <!-- 1 -->
      <g transform="translate(336.248666 335.934375) scale(0.1 -0.1)">
       <use xlink:href="#DejaVuSans-31"/>
      </g>
      <!-- 104 -->
      <g transform="translate(323.523666 347.132187) scale(0.1 -0.1)">
       <use xlink:href="#DejaVuSans-31"/>
       <use xlink:href="#DejaVuSans-30" x="63.623047"/>
       <use xlink:href="#DejaVuSans-34" x="127.246094"/>
      </g>
      <!-- 17 -->
      <g transform="translate(329.886166 358.33) scale(0.1 -0.1)">
       <use xlink:href="#DejaVuSans-31"/>
       <use xlink:href="#DejaVuSans-37" x="63.623047"/>
      </g>
      <!--  -->
      <g transform="translate(342.611166 369.527812) scale(0.1 -0.1)"/>
      <!--  -->
      <g transform="translate(342.611166 380.725625) scale(0.1 -0.1)"/>
      <!-- 5 -->
      <g transform="translate(336.248666 391.923437) scale(0.1 -0.1)">
       <use xlink:href="#DejaVuSans-35"/>
      </g>
      <!-- 322 -->
      <g transform="translate(323.523666 403.12125) scale(0.1 -0.1)">
       <use xlink:href="#DejaVuSans-33"/>
       <use xlink:href="#DejaVuSans-32" x="63.623047"/>
       <use xlink:href="#DejaVuSans-32" x="127.246094"/>
      </g>
      <!-- 31 -->
      <g transform="translate(329.886166 414.319062) scale(0.1 -0.1)">
       <use xlink:href="#DejaVuSans-33"/>
       <use xlink:href="#DejaVuSans-31" x="63.623047"/>
      </g>
     </g>
    </g>
    <g id="xtick_16">
     <g id="text_26">
      <!--  -->
      <g transform="translate(393.262462 324.736562) scale(0.1 -0.1)"/>
      <!-- 0 -->
      <g transform="translate(386.899962 335.934375) scale(0.1 -0.1)">
       <use xlink:href="#DejaVuSans-30"/>
      </g>
      <!-- 104 -->
      <g transform="translate(374.174962 347.132187) scale(0.1 -0.1)">
       <use xlink:href="#DejaVuSans-31"/>
       <use xlink:href="#DejaVuSans-30" x="63.623047"/>
       <use xlink:href="#DejaVuSans-34" x="127.246094"/>
      </g>
      <!-- 18 -->
      <g transform="translate(380.537462 358.33) scale(0.1 -0.1)">
       <use xlink:href="#DejaVuSans-31"/>
       <use xlink:href="#DejaVuSans-38" x="63.623047"/>
      </g>
      <!--  -->
      <g transform="translate(393.262462 369.527812) scale(0.1 -0.1)"/>
      <!--  -->
      <g transform="translate(393.262462 380.725625) scale(0.1 -0.1)"/>
      <!-- 3 -->
      <g transform="translate(386.899962 391.923437) scale(0.1 -0.1)">
       <use xlink:href="#DejaVuSans-33"/>
      </g>
      <!-- 323 -->
      <g transform="translate(374.174962 403.12125) scale(0.1 -0.1)">
       <use xlink:href="#DejaVuSans-33"/>
       <use xlink:href="#DejaVuSans-32" x="63.623047"/>
       <use xlink:href="#DejaVuSans-33" x="127.246094"/>
      </g>
      <!-- 32 -->
      <g transform="translate(380.537462 414.319062) scale(0.1 -0.1)">
       <use xlink:href="#DejaVuSans-33"/>
       <use xlink:href="#DejaVuSans-32" x="63.623047"/>
      </g>
     </g>
    </g>
    <g id="xtick_17">
     <g id="text_27">
      <!--  -->
      <g transform="translate(443.913758 324.736562) scale(0.1 -0.1)"/>
      <!-- 0 -->
      <g transform="translate(437.551258 335.934375) scale(0.1 -0.1)">
       <use xlink:href="#DejaVuSans-30"/>
      </g>
      <!-- 104 -->
      <g transform="translate(424.826258 347.132187) scale(0.1 -0.1)">
       <use xlink:href="#DejaVuSans-31"/>
       <use xlink:href="#DejaVuSans-30" x="63.623047"/>
       <use xlink:href="#DejaVuSans-34" x="127.246094"/>
      </g>
      <!-- 18 -->
      <g transform="translate(431.188758 358.33) scale(0.1 -0.1)">
       <use xlink:href="#DejaVuSans-31"/>
       <use xlink:href="#DejaVuSans-38" x="63.623047"/>
      </g>
      <!--  -->
      <g transform="translate(443.913758 369.527812) scale(0.1 -0.1)"/>
      <!--  -->
      <g transform="translate(443.913758 380.725625) scale(0.1 -0.1)"/>
      <!-- 3 -->
      <g transform="translate(437.551258 391.923437) scale(0.1 -0.1)">
       <use xlink:href="#DejaVuSans-33"/>
      </g>
      <!-- 323 -->
      <g transform="translate(424.826258 403.12125) scale(0.1 -0.1)">
       <use xlink:href="#DejaVuSans-33"/>
       <use xlink:href="#DejaVuSans-32" x="63.623047"/>
       <use xlink:href="#DejaVuSans-33" x="127.246094"/>
      </g>
      <!-- 32 -->
      <g transform="translate(431.188758 414.319062) scale(0.1 -0.1)">
       <use xlink:href="#DejaVuSans-33"/>
       <use xlink:href="#DejaVuSans-32" x="63.623047"/>
      </g>
     </g>
    </g>
    <g id="xtick_18">
     <g id="text_28">
      <!--  -->
      <g transform="translate(494.565054 324.736562) scale(0.1 -0.1)"/>
      <!-- 0 -->
      <g transform="translate(488.202554 335.934375) scale(0.1 -0.1)">
       <use xlink:href="#DejaVuSans-30"/>
      </g>
      <!-- 104 -->
      <g transform="translate(475.477554 347.132187) scale(0.1 -0.1)">
       <use xlink:href="#DejaVuSans-31"/>
       <use xlink:href="#DejaVuSans-30" x="63.623047"/>
       <use xlink:href="#DejaVuSans-34" x="127.246094"/>
      </g>
      <!-- 18 -->
      <g transform="translate(481.840054 358.33) scale(0.1 -0.1)">
       <use xlink:href="#DejaVuSans-31"/>
       <use xlink:href="#DejaVuSans-38" x="63.623047"/>
      </g>
      <!--  -->
      <g transform="translate(494.565054 369.527812) scale(0.1 -0.1)"/>
      <!--  -->
      <g transform="translate(494.565054 380.725625) scale(0.1 -0.1)"/>
      <!-- 0 -->
      <g transform="translate(488.202554 391.923437) scale(0.1 -0.1)">
       <use xlink:href="#DejaVuSans-30"/>
      </g>
      <!-- 326 -->
      <g transform="translate(475.477554 403.12125) scale(0.1 -0.1)">
       <use xlink:href="#DejaVuSans-33"/>
       <use xlink:href="#DejaVuSans-32" x="63.623047"/>
       <use xlink:href="#DejaVuSans-36" x="127.246094"/>
      </g>
      <!-- 32 -->
      <g transform="translate(481.840054 414.319062) scale(0.1 -0.1)">
       <use xlink:href="#DejaVuSans-33"/>
       <use xlink:href="#DejaVuSans-32" x="63.623047"/>
      </g>
     </g>
    </g>
   </g>
   <g id="text_29">
    <!-- Kaplan-Meier survival curve -->
    <g transform="translate(206.986894 16.318125) scale(0.12 -0.12)">
     <defs>
      <path id="DejaVuSans-4b" d="M 628 4666 
L 1259 4666 
L 1259 2694 
L 3353 4666 
L 4166 4666 
L 1850 2491 
L 4331 0 
L 3500 0 
L 1259 2247 
L 1259 0 
L 628 0 
L 628 4666 
z
" transform="scale(0.015625)"/>
      <path id="DejaVuSans-6c" d="M 603 4863 
L 1178 4863 
L 1178 0 
L 603 0 
L 603 4863 
z
" transform="scale(0.015625)"/>
      <path id="DejaVuSans-2d" d="M 313 2009 
L 1997 2009 
L 1997 1497 
L 313 1497 
L 313 2009 
z
" transform="scale(0.015625)"/>
      <path id="DejaVuSans-4d" d="M 628 4666 
L 1569 4666 
L 2759 1491 
L 3956 4666 
L 4897 4666 
L 4897 0 
L 4281 0 
L 4281 4097 
L 3078 897 
L 2444 897 
L 1241 4097 
L 1241 0 
L 628 0 
L 628 4666 
z
" transform="scale(0.015625)"/>
     </defs>
     <use xlink:href="#DejaVuSans-4b"/>
     <use xlink:href="#DejaVuSans-61" x="63.826172"/>
     <use xlink:href="#DejaVuSans-70" x="125.105469"/>
     <use xlink:href="#DejaVuSans-6c" x="188.582031"/>
     <use xlink:href="#DejaVuSans-61" x="216.365234"/>
     <use xlink:href="#DejaVuSans-6e" x="277.644531"/>
     <use xlink:href="#DejaVuSans-2d" x="341.023438"/>
     <use xlink:href="#DejaVuSans-4d" x="377.107422"/>
     <use xlink:href="#DejaVuSans-65" x="463.386719"/>
     <use xlink:href="#DejaVuSans-69" x="524.910156"/>
     <use xlink:href="#DejaVuSans-65" x="552.693359"/>
     <use xlink:href="#DejaVuSans-72" x="614.216797"/>
     <use xlink:href="#DejaVuSans-20" x="655.330078"/>
     <use xlink:href="#DejaVuSans-73" x="687.117188"/>
     <use xlink:href="#DejaVuSans-75" x="739.216797"/>
     <use xlink:href="#DejaVuSans-72" x="802.595703"/>
     <use xlink:href="#DejaVuSans-76" x="843.708984"/>
     <use xlink:href="#DejaVuSans-69" x="902.888672"/>
     <use xlink:href="#DejaVuSans-76" x="930.671875"/>
     <use xlink:href="#DejaVuSans-61" x="989.851562"/>
     <use xlink:href="#DejaVuSans-6c" x="1051.130859"/>
     <use xlink:href="#DejaVuSans-20" x="1078.914062"/>
     <use xlink:href="#DejaVuSans-63" x="1110.701172"/>
     <use xlink:href="#DejaVuSans-75" x="1165.681641"/>
     <use xlink:href="#DejaVuSans-72" x="1229.060547"/>
     <use xlink:href="#DejaVuSans-76" x="1270.173828"/>
     <use xlink:href="#DejaVuSans-65" x="1329.353516"/>
    </g>
   </g>
  </g>
 </g>
 <defs>
  <clipPath id="p8a25f96248">
   <rect x="67.240332" y="22.318125" width="446.4" height="244.62"/>
  </clipPath>
 </defs>
</svg>
